<?xml version="1.0" encoding="UTF-8"?>
<svg id="_レイヤー_2" data-name="レイヤー 2" xmlns="http://www.w3.org/2000/svg" viewBox="0 0 38.95 38.95">
  <defs>
    <style>
      .cls-1 {
        fill: #9a8f79;
      }
    </style>
  </defs>
  <g id="_固定" data-name="固定">
    <g>
      <path class="cls-1" d="M24.54,21.57c1.97-1.02,4.81-1.54,9.09-2.1-4.28-.56-7.12-1.07-9.09-2.1.67-2.12,2.31-4.49,4.95-7.91-3.42,2.63-5.79,4.28-7.91,4.95-1.02-1.97-1.54-4.81-2.1-9.09-.56,4.28-1.07,7.12-2.1,9.09-2.12-.67-4.49-2.31-7.91-4.95,2.63,3.42,4.28,5.79,4.95,7.91-1.97,1.02-4.81,1.54-9.09,2.1,4.28.56,7.12,1.07,9.09,2.1-.67,2.12-2.31,4.49-4.95,7.91,3.42-2.63,5.79-4.28,7.91-4.95,1.02,1.97,1.54,4.81,2.1,9.09.56-4.28,1.07-7.12,2.1-9.09,2.12.67,4.49,2.31,7.91,4.95-2.63-3.42-4.28-5.79-4.95-7.91Z"/>
      <rect class="cls-1" x=".41" y="18.49" width="1.96" height="1.96" transform="translate(-13.36 6.68) rotate(-45)"/>
      <rect class="cls-1" x="36.58" y="18.49" width="1.96" height="1.96" transform="translate(-2.77 32.27) rotate(-45)"/>
      <rect class="cls-1" x="18.49" y="36.58" width="1.96" height="1.96" transform="translate(6.68 77.89) rotate(-135)"/>
      <rect class="cls-1" x="18.49" y=".41" width="1.96" height="1.96" transform="translate(32.27 16.13) rotate(-135)"/>
    </g>
  </g>
</svg>