<?xml version="1.0" encoding="UTF-8"?>
<svg id="_レイヤー_2" data-name="レイヤー 2" xmlns="http://www.w3.org/2000/svg" viewBox="0 0 785.28 350.04">
  <defs>
    <style>
      .cls-1 {
        fill: none;
        stroke: #62361d;
        stroke-miterlimit: 10;
      }
    </style>
  </defs>
  <g id="_固定" data-name="固定">
    <polyline class="cls-1" points="1.17 350.01 1.34 347.45 1.05 344.89 .51 342.33 .96 339.77 1.03 337.22 1.15 334.66 1.06 332.1 1.35 329.54 .73 326.98 1.32 324.42 .54 321.86 .68 319.3 .88 316.74 .91 314.18 1.03 311.62 .96 309.06 1.14 306.5 .85 303.94 1.22 301.39 1.34 298.82 .85 296.26 1.46 293.7 .69 291.14 .82 288.58 .5 286.03 .79 283.47 1.37 280.91 .85 278.35 .75 275.79 1.08 273.23 1.12 270.67 .9 268.11 .65 265.55 1.11 262.99 1.17 260.43 .9 257.87 .65 255.31 1.09 252.75 1.39 250.19 .67 247.63 .94 245.07 .99 242.51 1.06 239.96 1.09 237.4 .74 234.84 .7 232.29 1.17 229.73 1.23 227.18 1.25 224.62 1.14 222.06 .95 219.5 1.13 216.94 .54 214.38 .69 211.82 .59 209.26 1.45 206.7 1.41 204.15 .91 201.59 .84 199.03 .81 196.47 1.42 193.91 1.05 191.35 .56 188.79 .83 186.23 .93 183.67 1.33 181.11 .77 178.55 .86 175.99 .61 173.43 1.4 170.86 1.42 168.3 1.34 165.74 1.13 163.18 1.03 160.62 1.22 158.06 .72 155.5 1.47 152.93 1.38 150.37 1 147.81 1.09 145.25 .67 142.68 .99 140.12 .8 137.56 1.15 135 1.26 132.43 .8 129.87 1.05 127.31 .92 124.74 1.44 122.19 1.22 119.63 1.37 117.07 .72 114.5 1.13 111.94 .78 109.38 1 106.82 .79 104.25 .82 101.69 1.25 99.13 .55 96.56 1.18 93.99 .62 91.43 .71 88.86 1.14 86.3 1.13 83.74 1.28 81.17 .58 78.6 .51 76.03 .73 73.46 1.49 70.98 2.88 69.09 4.8 67.33 6.51 65.35 8.69 63.85 10.15 61.62 12.23 60.03 13.96 58.07 15.65 56.09 17.66 54.42 19.49 52.58 21.31 50.72 23.43 49.16 25.17 47.22 26.94 45.3 28.32 43 30.42 41.42 32.02 39.34 33.87 37.51 35.85 35.82 37.66 33.95 39.89 32.52 41.67 30.63 43.24 28.54 44.96 26.59 47.03 25 48.55 22.86 50.65 21.28 52.62 19.58 54.14 17.42 56.14 15.75 57.95 13.88 59.52 11.77 61.89 10.47 63.8 8.7 65.04 6.26 66.85 4.38 69.31 3.16 70.95 1.48 73.43 1.41 76 .72 78.57 .56 81.14 .99 83.71 1.12 86.28 1.33 88.84 .95 91.41 1.37 93.98 1.17 96.54 1.41 99.11 1.43 101.68 .83 104.24 1.3 106.81 1.24 109.37 1.19 111.94 1.45 114.5 .87 117.07 1.44 119.63 1.16 122.2 1.22 124.76 1.28 127.32 .64 129.89 .7 132.45 1.41 135.01 1.03 137.58 .87 140.14 1.27 142.7 .67 145.27 .8 147.83 .66 150.39 .96 152.96 1.11 155.52 1.17 158.09 1.24 160.65 1.3 163.21 .84 165.78 1.24 168.34 1.49 170.91 .52 173.47 1.18 176.04 .84 178.6 1.19 181.17 1.42 183.73 .88 186.3 .59 188.86 1.24 191.43 1.1 194 .97 196.57 1.49 199.13 1.37 201.7 .87 204.27 1.04 206.84 1.25 209.41 1 211.98 1.39 214.55 .96 217.12 1.18 219.69 .76 222.26 1.35 224.83 .76 227.4 .68 229.96 1.38 232.53 .91 235.1 1.47 237.66 1.25 240.23 1.4 242.8 1.17 245.36 1.05 247.93 1.02 250.49 1.44 253.06 .64 255.62 .75 258.19 .78 260.75 1.46 263.32 1.39 265.89 1.32 268.45 1.46 271.02 .86 273.58 1.52 276.15 1.45 278.72 .99 281.28 .65 283.85 .76 286.42 .54 288.98 .6 291.55 .66 294.12 .88 296.69 .54 299.26 1.44 301.83 1.09 304.4 .58 306.97 .76 309.54 .59 312.11 1.17 314.68 .71 317.25 1.45 319.82 1.22 322.39 1.48 324.95 1.38 327.52 1.03 330.09 1.22 332.66 1.44 335.23 .82 337.79 .75 340.36 .87 342.93 .69 345.49 .55 348.06 .73 350.63 .85 353.2 .95 355.76 .84 358.33 1.1 360.9 1.31 363.47 .72 366.03 .79 368.6 1.21 371.17 1.2 373.74 .83 376.31 1.17 378.88 .6 381.45 .57 384.02 .99 386.59 1.41 389.17 .81 391.74 1.06 394.31 1.31 396.88 .7 399.44 .53 402.01 1.37 404.58 1.06 407.15 .64 409.72 1.33 412.29 .81 414.85 .61 417.42 1.52 419.99 1.45 422.56 .7 425.13 .71 427.7 .61 430.27 .79 432.84 .9 435.41 1.22 437.98 1.4 440.55 .69 443.12 1.11 445.69 1.37 448.26 1.39 450.83 .6 453.4 1.14 455.97 .55 458.54 1.22 461.11 1.2 463.68 .99 466.25 .97 468.82 .79 471.39 1.12 473.96 .85 476.53 .91 479.1 1.22 481.67 .78 484.24 .71 486.81 1.11 489.38 1.12 491.96 .55 494.53 .98 497.1 .91 499.67 1.21 502.24 .68 504.81 .58 507.38 .67 509.95 .72 512.52 1.25 515.09 .99 517.66 1.22 520.23 1.52 522.8 .59 525.37 .74 527.95 .71 530.52 1.46 533.09 1.39 535.66 .71 538.23 .7 540.8 .95 543.37 .99 545.94 .9 548.51 .85 551.09 1.1 553.66 1.01 556.23 .95 558.8 .96 561.37 .57 563.95 .88 566.52 .97 569.09 .92 571.66 1.45 574.23 1.41 576.8 1.14 579.37 1.15 581.95 1.29 584.52 .9 587.09 .55 589.66 1.07 592.23 1.51 594.81 .98 597.38 .71 599.95 1.33 602.52 1.47 605.09 .77 607.66 1.3 610.23 1.2 612.8 1.4 615.37 1.34 617.94 1.43 620.51 1.01 623.07 1.29 625.64 1.21 628.21 1.18 630.78 .8 633.35 1.21 635.92 .89 638.49 .55 641.07 1.25 643.64 1.01 646.21 1.1 648.78 .59 651.35 1.12 653.92 .75 656.49 .73 659.06 .92 661.63 .98 664.21 1.15 666.78 1.14 669.35 1.35 671.92 .77 674.49 1.09 677.06 .95 679.64 .86 682.21 .79 684.79 1.51 687.36 .8 689.93 .58 692.5 .67 695.08 1.02 697.65 1.31 700.22 1.04 702.8 1.05 705.37 1.08 707.95 .69 710.52 1.43 713.1 1.36 715.67 1.46 718.24 1.26 720.82 1.07 723.39 1.46 725.97 .77 728.54 1.29 731.12 .73 733.69 .7 736.26 .59 738.83 1.39 741.41 1.16 743.98 .9 746.55 1.14 749.13 1.03 751.7 1.45 754.28 .96 756.86 1.01 759.43 1.19 762.01 1.48 764.59 .68 767.17 .87 769.74 .82 772.32 1.11 774.9 1.25 777.48 .65 780.06 1.23 782.64 1.49 785.23 1.24"/>
  </g>
</svg>