<?xml version="1.0" encoding="UTF-8"?>
<svg id="_レイヤー_2" data-name="レイヤー 2" xmlns="http://www.w3.org/2000/svg" viewBox="0 0 52.93 60.12">
  <defs>
    <style>
      .cls-1 {
        fill: #fff;
      }
    </style>
  </defs>
  <g id="_レイヤー_7" data-name="レイヤー 7">
    <path class="cls-1" d="M29.62,28.75c1.37-2.68,5.98-7.55,11.04-12.8l-.09-.09c-5.25,5.05-10.12,9.66-12.8,11.04-.92-2.86-1.04-15.96-1.22-26.9h-.17c-.18,10.94-.3,24.04-1.22,26.9-2.68-1.37-7.55-5.98-12.8-11.04l-.09.09c5.05,5.25,9.66,10.12,11.04,12.8-2.86.92-13.67,1.01-23.31,1.21v.2c9.63.2,20.44.29,23.31,1.21-1.37,2.68-5.98,7.55-11.04,12.8l.09.09c5.25-5.05,10.12-9.66,12.8-11.04.92,2.86,1.04,15.96,1.22,26.9h.17c.18-10.94.3-24.04,1.22-26.9,2.68,1.37,7.55,5.98,12.8,11.04l.09-.09c-5.05-5.25-9.66-10.12-11.04-12.8,2.86-.92,13.67-1.01,23.31-1.21v-.2c-9.63-.2-20.44-.29-23.31-1.21Z"/>
  </g>
</svg>