<?xml version="1.0" encoding="UTF-8"?>
<svg id="_レイヤー_2" data-name="レイヤー 2" xmlns="http://www.w3.org/2000/svg" viewBox="0 0 413.82 66.48">
  <defs>
    <style>
      .cls-1 {
        fill: #9e8d73;
      }
    </style>
  </defs>
  <g id="_ガイド" data-name="ガイド">
    <g>
      <path class="cls-1" d="M84.42,37.61c0,2.21-.05,5.15.68,6.35.89,1.42,2.78,1.52,5.04,1.52,4.94,0,7.35-1.47,8.98-2.68,1.58-1.26,2.99-3.36,4.1-5.25.21-.37.31-.47.89-.32.58.21.58.42.52.74-.58,2.78-1.73,6.62-2.73,9.29-4.67-.1-9.5-.16-13.86-.16-4.62,0-9.61.05-14.28.16-.37,0-6.09-.01-6.09-.54s5.72-.72,6.09-.78c2-.21,2.99-.26,3.62-1.37.68-1.16.68-3.47.68-6.98v-19.06c0-5.04-.05-5.72-.63-6.88-.53-1-1.68-1.05-3.78-1.26-.42-.05-.52-.11-.52-.68,0-.63.1-.74.52-.74,2.26.05,5.04.21,7.46.21s5.2-.16,7.46-.21c.42,0,.58.11.58.74,0,.58-.16.63-.47.68-2,.21-3.1.21-3.68,1.26-.63,1.21-.58,3.57-.58,6.88v19.06Z"/>
      <path class="cls-1" d="M133.35,45.96c.47.05,5.29.25,5.29.72,0,.53-4.87.49-5.24.49-1.94.1-6.09.58-8.09.89-.31,0-.63-.32-.63-.63.1-1.52.16-2.63.16-4.1-1.84,3.26-4.78,4.78-7.88,4.78-1.94,0-7.88-.74-7.88-7.46,0-2,.1-3.62.1-5.62v-4.15c0-1.94,0-3.1-.21-4.04-.21-.95-.74-1.42-1.63-1.37l-1.37.05c-.52,0-.63,0-.68-.58-.05-.58,0-.74.53-.79,2.36-.32,6.14-.95,8.45-1.47.26,0,.63.26.63.53-.16,3.73-.21,6.83-.21,9.19v5.51c0,1.84-.05,3.73.58,5.04.68,1.68,2.1,2.52,3.83,2.52,2,0,3.57-1.26,4.62-3.05.89-1.47,1.1-2.47,1.1-4.15v-7.4c0-1.94-.1-2.99-.32-3.99-.21-.95-.68-1.47-1.63-1.42l-1.42.1c-.47.05-.58-.05-.63-.63-.05-.58,0-.68.58-.74,2.1-.26,6.14-1.05,8.24-1.52.26,0,.58.26.58.47-.16,3.83-.16,6.88-.16,9.24v7.25c0,3.41,0,4.25.31,5.2.32.89.95,1,1.94,1.05l1,.05Z"/>
      <path class="cls-1" d="M136.24,26.37c-.53.05-.63,0-.68-.58-.05-.63.05-.68.58-.79,2.15-.47,5.83-1.47,8.4-2.31.31,0,.58.21.58.42-.05,1.52-.1,3.1-.1,4.41,1.68-3.2,4.67-4.99,7.4-4.99,2.99,0,6.3,1.31,7.51,5.2,1.94-3.36,4.57-5.2,8.19-5.2,1.63,0,7.46.84,7.46,7.51,0,1.94-.05,4.57-.05,5.83v3.62c0,3.15,0,4.78.37,5.57.42.79,1.52.84,2.94,1,.31.05.42.1.42.58,0,.53-.05.63-.42.63-1.84,0-3.99-.16-5.78-.16s-4.04.1-6.09.16c-.42,0-.47-.1-.47-.63s.1-.58.47-.58c1.47-.16,2.31-.16,2.73-1,.42-.84.42-2.52.42-5.57v-7.14c0-1.52.05-2.89-.58-4.52-.58-1.58-1.68-2.63-3.68-2.63s-3.52,1.31-4.52,2.99c-.95,1.52-1.1,2.47-1.1,4.1v7.19c0,3.15,0,4.78.37,5.57.37.79,1.42.84,2.99,1,.31.05.37.16.37.63s-.05.58-.42.58c-2-.05-4.1-.16-5.78-.16-1.89,0-4.04.1-5.99.16-.42,0-.47-.1-.47-.63,0-.47.1-.58.47-.58,1.42-.11,2.26-.16,2.68-1,.42-.84.42-2.52.42-5.57v-7.14c0-1.52.1-2.89-.58-4.52-.63-1.63-1.79-2.63-3.73-2.63s-3.41,1.31-4.41,2.99c-.95,1.58-1.16,2.52-1.16,4.2v7.09c0,3.15-.05,4.78.31,5.57.37.84,1.47.84,2.94,1,.32.05.42.16.42.68,0,.47-.1.53-.42.53-1.84-.05-4.04-.16-5.83-.16s-3.94.1-5.88.16c-.37,0-.47-.1-.47-.58s.1-.58.47-.63c1.47-.16,2.31-.16,2.78-1,.47-.84.37-2.52.37-5.57v-7.77c0-1.89,0-3.41-.37-4.36-.32-.89-.84-1.21-1.84-1.1l-1.26.11Z"/>
      <path class="cls-1" d="M206.59,30.35c0,7.04-4.88,12.76-12.29,12.76s-12.23-5.51-12.23-12.65,4.99-12.92,12.23-12.92,12.29,5.57,12.29,12.81ZM185.21,30.35c0,6.56,1.94,11.18,6.09,11.18s6.14-4.99,6.14-11.18c0-6.67-1.94-11.24-6.14-11.24s-6.09,4.94-6.09,11.24Z"/>
      <path class="cls-1" d="M217.51,36.35c-3.83-1.79-6.09-3.05-6.09-7.56,0-2.94,2.47-6.3,8.3-6.3,1.31,0,2.84.32,3.78.53,1.05.21,2.1.21,3.47.05.1,1.84.26,4.36.47,6.09,0,.32-.1.42-.58.47-.53.11-.63-.1-.79-.37-1.42-2.89-3.62-5.3-6.14-5.3-2.94,0-4.1,1.58-4.1,3.73,0,1.47,1.16,2.57,3.94,3.73l1.84.79c4.57,2,7.19,3.57,7.19,8.24,0,3.62-2.73,7.61-9.24,7.61-2.94,0-5.3-.58-7.46-1.47-.47-1.63-.95-4.04-1.16-5.72,0-.37.05-.42.52-.47.53-.05.58-.05.74.32,1.73,3.41,4.62,5.83,7.35,5.83,3.1,0,4.57-1.94,4.57-4.67,0-2.26-1.79-3.2-4.83-4.67l-1.79-.84Z"/>
      <path class="cls-1" d="M255.68,18.55c0-5.04,0-5.72-.63-6.88-.53-1-1.79-1.05-4.04-1.26-.31,0-2.69-.89-2.69-1.52s2.33.1,2.69.1c2.42.11,4.67.16,7.19.16s7.09-.26,10.29-.26c14.65,0,22.42,6.93,22.42,18.85s-8.3,19.69-22.84,19.69c-2.84,0-6.62-.32-9.82-.32-2.47,0-4.73.05-6.93.16-.37,0-3.01-.16-3.01-.74s2.64-.53,3.01-.58c2.05-.16,3.31-.47,3.83-1.37.58-1.05.53-3.47.53-6.98v-19.06ZM261.87,37.61c0,4.31.1,5.36.84,6.41.84,1.16,2.52,1.63,5.25,1.63,10.4,0,16.01-6.46,16.01-17.69s-5.57-17.22-15.65-17.22c-3.05,0-5.09.37-5.78,1.42-.74,1.05-.68,2.68-.68,6.41v19.06Z"/>
      <path class="cls-1" d="M301.46,35.25c0,6.93,4.25,10.4,7.51,10.4s5.36-1.16,7.3-3.78c.16-.21.37-.26.53-.26s.31.1.47.21c.21.16.42.37.42.53,0,.11-.1.32-.26.58-2.42,3.73-5.36,5.2-9.71,5.2-7.25,0-12.13-5.36-12.13-12.6s5.04-12.97,12.18-12.97,10.08,6.09,10.24,9.77c0,.42,0,.53-.26.89-.26.32-.47.26-.79.26-5.3-.16-10.61-.21-15.28-.11-.1.47-.21,1-.21,1.89ZM311.75,31.31c.42-.05.47-.37.47-.84-.16-2.94-1.42-6.35-4.46-6.35-2.84,0-5.04,3.05-5.83,7.35,3.68.11,6.14.11,9.82-.16Z"/>
      <path class="cls-1" d="M328.18,36.35c-3.83-1.79-6.09-3.05-6.09-7.56,0-2.94,2.47-6.3,8.3-6.3,1.31,0,2.84.32,3.78.53,1.05.21,2.1.21,3.47.05.1,1.84.26,4.36.47,6.09,0,.32-.1.42-.58.47-.53.11-.63-.1-.79-.37-1.42-2.89-3.62-5.3-6.14-5.3-2.94,0-4.1,1.58-4.1,3.73,0,1.47,1.16,2.57,3.94,3.73l1.84.79c4.57,2,7.19,5.57,7.19,10.24,0,3.62-2.73,5.61-9.24,5.61-2.94,0-5.3-.58-7.46-1.47-.47-1.63-.95-4.04-1.16-5.72,0-.37.05-.42.52-.47.53-.05.58-.05.74.32,1.73,3.41,4.62,5.83,7.35,5.83,3.1,0,4.57-1.94,4.57-4.67,0-2.26-1.79-3.2-4.83-4.67l-1.79-.84Z"/>
      <path class="cls-1" d="M346.87,31.94c0-2-.05-3.47-.26-4.46-.26-.84-.79-1.16-1.94-1.05l-1.37.11c-.53.05-.63.05-.68-.58s0-.68.58-.79c2.05-.47,6.04-1.58,8.51-2.42.37,0,.63.21.63.53-.16,3.83-.21,6.77-.21,9.29v6.88c0,3.15,0,4.78.37,5.62.42.79,1.31.79,2.99.89.31.05.37.21.37.68,0,.53-.05.63-.37.63-1.89-.05-4.04-.16-5.83-.16s-4.15.1-5.93.16c-.42,0-.53-.1-.53-.63,0-.47.1-.68.47-.68,1.52-.1,2.36-.16,2.78-.89.52-.89.42-2.57.42-5.62v-7.51ZM353.79,15.62c0,2.39-2.33,4.65-4.51,4.65-2.39,0-4.72-2.26-4.72-4.65s2.33-4.58,4.72-4.58c2.19,0,4.51,2.19,4.51,4.58Z"/>
      <path class="cls-1" d="M373.07,43.33c9.14-.11,10.19,4.15,10.19,7.04,0,4.25-2.52,9.5-13.7,9.5-7.04,0-11.08-2.99-11.08-6.35,0-2.89,1.79-4.67,5.83-6.2-3.2-.89-4.15-2.26-4.15-3.94,0-2.15,1.89-3.62,5.72-5.2-3.89-1.05-6.62-3.1-6.62-7.4s3.83-8.24,9.66-8.24c2.89,0,4.36.63,5.78,1.26,3.62,0,6.3-.21,8.45-.42.21,0,.37.16.37.37l-.74,1.63c-.1.21-.21.37-.42.37-1.89-.16-3.36-.16-5.51-.16,1.52,1.26,2.42,2.99,2.42,4.99,0,4.52-3.2,8.03-9.71,8.03-.63,0-1.26-.05-1.79-.1-1.79,1.05-2.68,1.84-2.68,3.2,0,1.26,1.21,1.68,3.15,1.68l4.83-.05ZM369.71,47.95c-1.1,0-2.52-.11-3.57-.21-.42.32-.74.53-1.1.95-1.05,1.37-1.42,2.36-1.42,4.1,0,3.2,2.73,5.51,7.04,5.51,4.94,0,7.82-2.47,7.82-5.99,0-2.21-.68-4.36-6.67-4.36h-2.1ZM362.88,30.63c0,3.99,1.68,6.62,4.46,6.62s4.36-2.57,4.36-6.62-1.68-6.62-4.36-6.62c-2.89,0-4.46,2.78-4.46,6.62Z"/>
      <path class="cls-1" d="M385.78,26.32c-.52.05-.68,0-.74-.58s.05-.68.63-.79c2.15-.42,5.93-1.47,8.3-2.31.31,0,.63.21.63.42-.1,1.47-.1,3.1-.1,4.46,1.84-3.15,4.78-4.99,8.14-4.99,1.58,0,7.67.84,7.67,7.51,0,1.94-.05,4.57-.05,5.83v13.62c0,3.15.05,4.78.42,5.57.37.79,1.21.84,2.73,1,.31.05.42.16.42.63s-.05.58-.42.58c-1.94-.05-3.94-.16-5.72-.16s-3.99.1-5.99.16c-.37,0-.42-.1-.42-.58,0-.53.1-.63.42-.63,1.42-.11,2.26-.16,2.68-1,.42-.84.42-2.52.42-5.57v-17.14c0-1.52.1-2.89-.63-4.52-.68-1.58-1.79-2.63-3.83-2.63-1.89,0-3.73,1.31-4.73,2.99-.95,1.58-1.1,2.52-1.1,4.2v7.09c0,3.15-.05,4.78.31,5.57.42.84,1.26.84,2.89,1,.37.05.47.1.47.63s-.1.58-.47.58c-1.84-.05-3.89-.16-5.62-.16-1.89,0-4.04.1-6.04.16-.32,0-.37-.1-.37-.58,0-.53.1-.58.37-.63,1.52-.16,2.36-.16,2.78-1,.42-.84.37-2.52.37-5.57v-7.77c0-1.94,0-3.47-.37-4.41-.32-.89-.74-1.16-1.63-1.1l-1.42.11Z"/>
      <path class="cls-1" d="M54.49,32.29C54.03,15.18,40.76,1.45,24.11,0c3.97,5.84,6.4,12.84,6.6,20.42.5,18.88-12.79,34.86-30.71,38.42,5.98,4.94,13.7,7.85,22.06,7.63,18.39-.48,32.91-15.79,32.42-34.18Z"/>
    </g>
  </g>
</svg>