<?xml version="1.0" encoding="UTF-8"?>
<svg id="_レイヤー_2" data-name="レイヤー 2" xmlns="http://www.w3.org/2000/svg" viewBox="0 0 312.74 119.77">
  <defs>
    <style>
      .cls-1 {
        fill: #9a8f79;
      }

      .cls-2 {
        fill: none;
        stroke: #9a8f79;
        stroke-miterlimit: 10;
      }
    </style>
  </defs>
  <g id="_レイヤー_1-2" data-name="レイヤー 1">
    <g>
      <path class="cls-1" d="M241.55,28.75c1.37-2.68,5.98-7.55,11.04-12.8l-.09-.09c-5.25,5.05-10.12,9.66-12.8,11.04-.92-2.86-1.04-15.96-1.22-26.9h-.17c-.18,10.94-.3,24.04-1.22,26.9-2.68-1.37-7.55-5.98-12.8-11.04l-.09.09c5.05,5.25,9.66,10.12,11.04,12.8-2.86.92-13.67,1.01-23.31,1.21v.2c9.63.2,20.44.29,23.31,1.21-1.37,2.68-5.98,7.55-11.04,12.8l.09.09c5.25-5.05,10.12-9.66,12.8-11.04.92,2.86,1.04,15.96,1.22,26.9h.17c.18-10.94.3-24.04,1.22-26.9,2.68,1.37,7.55,5.98,12.8,11.04l.09-.09c-5.05-5.25-9.66-10.12-11.04-12.8,2.86-.92,13.67-1.01,23.31-1.21v-.2c-9.63-.2-20.44-.29-23.31-1.21Z"/>
      <path class="cls-1" d="M294.75,65.67c.73-1.26,3.19-3.57,5.88-6.04l-.05-.04c-2.8,2.39-5.39,4.56-6.82,5.21-.49-1.35-.56-7.54-.65-12.7h-.09c-.1,5.17-.16,11.35-.65,12.7-1.43-.65-4.02-2.83-6.82-5.21l-.05.04c2.69,2.48,5.15,4.78,5.88,6.04-1.53.43-7.29.48-12.42.57v.09c5.13.1,10.89.14,12.42.57-.73,1.26-3.19,3.57-5.88,6.04l.05.04c2.8-2.39,5.39-4.56,6.82-5.21.49,1.35.56,7.54.65,12.7h.09c.1-5.17.16-11.35.65-12.7,1.43.65,4.02,2.83,6.82,5.21l.05-.04c-2.69-2.48-5.15-4.78-5.88-6.04,1.53-.43,7.29-.48,12.42-.57v-.09c-5.13-.1-10.9-.14-12.42-.57Z"/>
      <path class="cls-2" d="M.5,119.77C.5,60.7,70.28,12.81,156.37,12.81s155.87,47.89,155.87,106.96"/>
    </g>
  </g>
</svg>