<?xml version="1.0" encoding="UTF-8"?>
<svg id="_レイヤー_2" data-name="レイヤー 2" xmlns="http://www.w3.org/2000/svg" viewBox="0 0 197.68 115.33">
  <defs>
    <style>
      .cls-1 {
        fill: #231815;
      }

      .cls-2, .cls-3 {
        fill: #15283a;
      }

      .cls-3 {
        fill-rule: evenodd;
      }
    </style>
  </defs>
  <g id="_固定" data-name="固定">
    <g>
      <g>
        <path d="M18.54,105.18c-.53,0-.89-.19-1.06-.57-.18-.38-.27-.8-.27-1.27,0-.32.02-.64.07-.95s.1-.58.14-.78c.13-.61.34-1.34.63-2.19.29-.85.62-1.74,1-2.68.38-.94.78-1.88,1.2-2.8.42-.93.82-1.79,1.22-2.61.39-.81.74-1.51,1.05-2.09-.37.02-.8.01-1.28-.01-.48-.02-.98-.04-1.5-.04-.89,0-1.76.07-2.62.21-.86.14-1.57.46-2.11.95-.26.24-.44.5-.56.77-.11.27-.17.55-.17.82,0,.31.05.6.14.89.02.03.02.07.02.12,0,.16-.08.24-.24.24-.1,0-.17-.04-.22-.12-.16-.26-.28-.52-.35-.78-.07-.27-.11-.53-.11-.78,0-.45.08-.88.24-1.28.16-.4.35-.73.58-.99.56-.66,1.33-1.1,2.29-1.32s1.97-.33,3.02-.33c.8,0,1.59.03,2.35.1.76.06,1.44.11,2.04.14.56.03,1.26.08,2.1.16.84.07,1.65.11,2.44.11.71,0,1.34-.05,1.91-.14.56-.1.97-.27,1.23-.53.05.1.07.21.07.34,0,.34-.19.67-.58.99-.39.32-.91.54-1.57.65-.21.03-.45.06-.71.07-.27.02-.54.02-.83.02-.48,0-.97-.01-1.45-.04-.48-.02-.91-.05-1.28-.08-.37-.03-.62-.04-.75-.02-.1.14-.25.41-.45.8s-.41.81-.64,1.26c-.23.45-.43.86-.6,1.23-.31.64-.63,1.37-.97,2.17-.34.81-.66,1.62-.97,2.44-.31.82-.57,1.6-.78,2.34-.22.74-.36,1.38-.42,1.91-.02.05-.02.1-.02.16v.16c0,.31.06.57.18.78.12.22.31.33.57.33.23,0,.5-.12.82-.36.32-.24.69-.64,1.11-1.21.08-.1.15-.14.22-.14.1,0,.14.08.14.24,0,.11-.04.27-.11.46s-.2.42-.37.68c-.14.21-.38.49-.7.83-.32.35-.64.64-.94.88-.27.23-.61.43-1.01.6-.4.18-.79.27-1.16.27Z"/>
        <path d="M30.93,105.42c-1.19,0-2.24-.17-3.14-.52-.9-.35-1.6-.91-2.1-1.68-.5-.77-.75-1.8-.75-3.09s.21-2.55.64-3.78c.43-1.23,1.02-2.38,1.78-3.44.76-1.06,1.65-2,2.67-2.8,1.02-.81,2.13-1.43,3.32-1.88,1.19-.45,2.43-.68,3.72-.68,1.43,0,2.6.24,3.5.72.9.48,1.57,1.14,1.99,1.97.43.83.64,1.76.64,2.79,0,1.37-.33,2.8-.99,4.3-.68,1.53-1.56,2.91-2.66,4.13-1.09,1.22-2.37,2.19-3.83,2.9s-3.05,1.06-4.79,1.06ZM33.12,104.14c.95-.26,1.88-.73,2.8-1.42.92-.69,1.75-1.52,2.49-2.49.74-.97,1.33-1.98,1.76-3.04.68-1.63,1.01-3.16,1.01-4.59,0-.23-.01-.44-.04-.65-.02-.21-.05-.41-.08-.6-.18-.98-.59-1.67-1.23-2.08-.64-.4-1.37-.6-2.17-.6s-1.69.17-2.56.49c-.87.33-1.62.74-2.25,1.22-.77.61-1.49,1.31-2.15,2.1-.66.79-1.22,1.63-1.67,2.51-.39.77-.7,1.61-.93,2.52-.23.91-.35,1.79-.35,2.64,0,.77.11,1.48.34,2.13.23.64.6,1.16,1.11,1.56.52.39,1.2.59,2.05.59.55,0,1.17-.1,1.86-.29Z"/>
        <path d="M42.76,104.65c.19-.81.45-1.7.78-2.69.33-.99.71-2.02,1.13-3.1.43-1.08.87-2.15,1.32-3.21s.89-2.08,1.3-3.05c.42-.97.9-1.96,1.45-2.96.11-.19.21-.37.3-.53.09-.16.19-.3.3-.41-.63.02-1.3.09-2.02.23-.72.14-1.4.33-2.05.57s-1.21.52-1.67.85c-.46.32-.75.68-.88,1.06-.02.05-.05.07-.1.07-.14,0-.22-.11-.22-.34,0-.05.02-.12.05-.22.14-.42.33-.79.54-1.11.22-.32.44-.6.66-.82.53-.55,1.13-.88,1.79-1,.66-.12,1.36-.18,2.1-.18h6.11c1.11,0,2,.17,2.67.51.67.34,1.15.78,1.44,1.34.29.56.4,1.15.34,1.77-.11,1.27-.56,2.32-1.34,3.15-.78.83-1.69,1.44-2.74,1.85-.72.27-1.55.49-2.46.66-.92.17-1.81.25-2.68.25-.19,0-.38,0-.57-.01-.19,0-.37-.02-.54-.04-.21.52-.43,1.09-.66,1.73-.23.64-.45,1.28-.65,1.92-.2.64-.37,1.24-.5,1.8-.13.56-.19,1.02-.19,1.39,0,.24.03.42.1.53h-3.12ZM47.93,96.9c.74.02,1.51-.05,2.32-.21.8-.15,1.58-.41,2.32-.77.74-.36,1.37-.83,1.88-1.41.37-.42.66-.9.87-1.44.21-.54.31-1.07.31-1.58,0-.66-.17-1.26-.51-1.79-.34-.53-.88-.88-1.62-1.04-.19-.05-.39-.08-.58-.1-.19-.02-.4-.03-.63-.05-.35.43-.72.97-1.09,1.59-.37.63-.73,1.28-1.07,1.97-.35.68-.67,1.34-.97,1.98-.3.64-.54,1.19-.74,1.65l-.51,1.18Z"/>
        <path d="M61.86,104.65c.19-.81.45-1.7.78-2.69s.71-2.02,1.14-3.1c.43-1.08.87-2.15,1.32-3.21s.89-2.08,1.3-3.05.9-1.96,1.45-2.96c.11-.19.21-.37.3-.53.09-.16.19-.3.3-.41-.63.02-1.3.09-2.02.23-.72.14-1.4.33-2.05.57-.65.24-1.21.52-1.67.85-.46.32-.75.68-.88,1.06-.02.05-.05.07-.1.07-.14,0-.22-.11-.22-.34,0-.05.02-.12.05-.22.14-.42.33-.79.54-1.11.22-.32.44-.6.66-.82.53-.55,1.13-.88,1.79-1,.66-.12,1.36-.18,2.1-.18h6.11c1.11,0,2,.17,2.67.51.67.34,1.15.78,1.44,1.34.29.56.4,1.15.34,1.77-.11,1.27-.56,2.32-1.34,3.15-.78.83-1.69,1.44-2.74,1.85-.72.27-1.55.49-2.46.66-.92.17-1.81.25-2.68.25-.19,0-.38,0-.57-.01-.19,0-.37-.02-.54-.04-.21.52-.43,1.09-.66,1.73-.23.64-.45,1.28-.65,1.92-.2.64-.37,1.24-.49,1.8-.13.56-.19,1.02-.19,1.39,0,.24.03.42.1.53h-3.12ZM67.03,96.9c.74.02,1.51-.05,2.32-.21s1.58-.41,2.32-.77c.74-.36,1.37-.83,1.88-1.41.37-.42.66-.9.87-1.44.21-.54.31-1.07.31-1.58,0-.66-.17-1.26-.51-1.79-.34-.53-.88-.88-1.62-1.04-.19-.05-.39-.08-.58-.1-.19-.02-.4-.03-.63-.05-.35.43-.72.97-1.09,1.59-.37.63-.73,1.28-1.07,1.97-.35.68-.67,1.34-.97,1.98-.3.64-.54,1.19-.74,1.65l-.51,1.18Z"/>
        <path d="M88.88,104.84c-.61,0-1.08-.16-1.4-.48-.32-.32-.54-.73-.65-1.23-.11-.5-.19-1.01-.22-1.55,0-.31.02-.67.05-1.09.03-.42.08-.82.13-1.22.06-.39.1-.69.13-.88h-5.53c-1.03,1.08-2.01,2.13-2.93,3.15-.93,1.02-1.83,2.06-2.72,3.1h-2.41c.42-.39.97-.91,1.65-1.56s1.46-1.4,2.33-2.23c.87-.84,1.77-1.73,2.72-2.67.94-.94,1.89-1.89,2.84-2.85.95-.96,1.85-1.88,2.69-2.78.85-.89,1.6-1.7,2.26-2.43.32-.35.62-.71.91-1.07.28-.36.6-.66.95-.91.35-.24.79-.36,1.3-.36h1.74c-.27.26-.55.69-.82,1.3-.27.61-.52,1.27-.74,1.98-.22.71-.4,1.35-.54,1.93-.21.87-.42,1.81-.64,2.83s-.39,2.02-.52,3.02c-.13,1-.17,1.92-.12,2.78.02.31.08.62.18.95.1.33.26.61.46.85.2.23.45.35.76.35.27,0,.57-.1.89-.31l.14.22c-.21.32-.61.6-1.2.82-.59.23-1.16.34-1.7.34ZM77.98,93.06c-.26-.27-.45-.56-.57-.85-.12-.29-.18-.56-.18-.82,0-.32.07-.63.2-.93.14-.3.3-.55.49-.76.39-.43,2.11-1.21,2.69-1.42.58-.21,1.2-.34,1.85-.4.65-.06,1.28-.08,1.87-.08h5.41c-.34.34-.85.6-1.53.78-.68.19-1.43.32-2.23.41-.81.09-1.58.17-2.33.24-.75.07-1.36.17-1.85.28-.85.19-2.74,1.02-3.18,1.57-.44.55-.66,1.21-.64,1.98ZM82.46,97.19h4.64c.19-1.06.42-2.13.69-3.19.27-1.06.5-2,.71-2.8-.98.93-1.98,1.9-3.01,2.91-1.02,1.01-2.03,2.03-3.03,3.08Z"/>
        <path d="M98.95,105.57c-.74,0-1.52-.08-2.33-.25-.81-.17-1.49-.43-2.04-.78-.76-.52-1.31-1.18-1.67-1.98-.35-.81-.53-1.68-.53-2.63s.16-1.94.47-2.97c.31-1.03.77-2.04,1.36-3.03.6-.99,1.3-1.91,2.11-2.75.81-.85,1.73-1.57,2.74-2.16,1.01-.6,2.09-1.01,3.24-1.23.72-.14,1.42-.22,2.08-.22,1.29,0,2.32.25,3.09.76.77.51,1.16,1.16,1.16,1.94,0,.16-.01.32-.04.47s-.08.32-.16.49c-.18.47-.47.88-.88,1.24-.41.36-.88.64-1.4.83-.52.19-2.89.9-3.44.87-.26-.03-.48-.12-.66-.28-.19-.15-.28-.34-.28-.57s.1-.47.29-.72c.18.06.38.1.6.1.4,0,2.63-.72,3.02-.92.39-.19.71-.46.97-.8s.39-.72.39-1.14c0-.56-.19-.94-.58-1.12-.39-.18-.82-.28-1.3-.28-.32,0-.64.03-.95.08-.31.06-.57.11-.76.16-.92.24-1.81.7-2.68,1.39-.87.68-1.66,1.49-2.38,2.43-.72.93-1.32,1.9-1.8,2.9-.31.64-.59,1.42-.85,2.34-.26.92-.39,1.82-.39,2.7,0,.47.04.91.13,1.34.09.43.24.82.45,1.17.34.58.81.98,1.41,1.21.6.23,1.24.34,1.9.34.5,0,.99-.04,1.49-.13.49-.09.94-.21,1.34-.35.52-.18,1.01-.42,1.5-.74.48-.31.93-.67,1.33-1.07.45-.47.83-.97,1.15-1.52.31-.55.52-1.12.62-1.71h-1.28c-.71,0-1.44,0-2.2.01-.76,0-1.33.04-1.71.11.23-.4.43-.74.6-1,.18-.27.37-.5.57-.7s.39-.3.57-.3h7.08c-.11.61-.31,1.05-.6,1.3-.29.26-.65.43-1.09.51-.08.23-.16.45-.24.66-.08.22-.16.39-.24.52-.9,1.85-2.13,3.23-3.69,4.13-1.56.9-3.38,1.35-5.46,1.35Z"/>
        <path d="M110.23,104.65c-.26,0-.45-.1-.57-.31-.12-.21-.18-.48-.18-.82,0-.47.08-1.01.23-1.64.15-.63.35-1.28.58-1.96.23-.68.47-1.32.71-1.94.24-.62.45-1.15.63-1.58h-1.33c-.13,0-.19-.05-.19-.14s.07-.23.22-.4c.14-.17.31-.32.51-.45s.35-.19.48-.19h.82c.4-.95.78-1.84,1.14-2.67.35-.83.8-1.71,1.33-2.64.13-.23.25-.44.36-.64.11-.2.24-.38.39-.54-.87.11-1.76.28-2.67.51-.91.23-1.72.52-2.43.87-.71.35-1.21.77-1.5,1.26-.02.05-.05.07-.1.07-.03,0-.06-.03-.08-.1s-.03-.14-.01-.22c.16-.42.36-.82.6-1.21.24-.39.47-.69.7-.92.35-.37.84-.64,1.45-.8.61-.16,1.24-.27,1.9-.31.65-.05,1.21-.07,1.68-.07h4.78c.56,0,1.07-.02,1.51-.06.44-.04.82-.06,1.12-.06.5,0,.79.12.87.36.02.06.03.12.04.18,0,.06.01.12.01.21,0,.32-.07.69-.22,1.1-.14.41-.3.81-.47,1.18-.17.38-.3.69-.4.93-.02.08-.06.14-.13.17-.07.03-.14.05-.21.05-.08,0-.15-.02-.22-.05-.05-.03-.06-.14-.04-.33.02-.18.06-.4.11-.64.05-.24.07-.45.07-.63,0-.52-.21-.91-.62-1.2-.41-.28-.92-.42-1.53-.42-.45,0-.82.04-1.11.11-.29.07-.52.25-.7.52-.64.95-1.23,1.92-1.75,2.92-.52,1-1.01,2.02-1.46,3.07h6.3s.02.1-.08.29c-.11.19-.23.39-.39.59-.15.2-.29.3-.4.3h-5.96c-.18.45-.39,1-.63,1.64-.24.64-.46,1.28-.66,1.91-.2.63-.36,1.17-.47,1.62-.1.39-.14.73-.14,1.04,0,.4.12.71.37.92.25.21.69.31,1.32.31.87,0,1.74-.04,2.61-.11.87-.07,2.18,0,3.03-.12,1.02-.16,5.08-.57,5.65-.93.57-.35.76-.35,1.21-1.66.03-.06.25-.2.31-.2.11,0,0,.19,0,.36,0,.03,0,.07-.01.12,0,.05-.02.1-.04.17-.13.42-.28.79-.46,1.11-.18.32-.36.6-.56.82-.45.55-5.17.95-5.87,1.07-.71.12-1.42.18-2.13.18h-7.32Z"/>
      </g>
      <path class="cls-3" d="M170.25,21.32c6.93,10.86,21.9.17,13.21-5.79-.04-.03-.07-.06-.12-.09-.01,0-.03-.01-.04-.03h0c-.2-.1-.44-.17-.68-.17-.76,0-1.37.61-1.37,1.37s.61,1.37,1.37,1.37,1.37-.61,1.37-1.37v-.03c5.51,5.19-7.12,13.24-12.91,4.22-9.46-14.83,27.7-29.33,25.58-11.08-4.59,25.7-38.76,25.83-54.05,68.26,1,3.97,2.08,7.28,3.21,9.94-1.4,7.99-1.53,13.56-.42,16.73,2.88-20.86,9.05-36.44,18.52-46.73-7.69,10.58-12.27,22.18-13.74,34.8,6.02-2.01,10-3.58,11.93-4.72.45-1.25.89-2.49,1.34-3.69.16-.47,2.83-2.09,3.01-2.54-2.08,1.21-6.76.41-9.91,2.49,1.41-1.9,7.02-2.51,8.02-2.99,2.25-6.12,4.35-11.42,6.51-16.63.28-.64,2.89-2.56,3.15-3.2-1.74,1.05-8.58,2.24-12.83,6.54,2.7-5.33,10.19-6.41,11.45-7.51,2.11-4.85,4.35-10.01,6.9-14.65.32-.58,3.01-1.99,3.36-2.57-1.45.83-6.9,2.86-7.83,3.02,1.24-.58,5.29-2.79,6.1-3.28,2.53-4.23,15.61-21.83,16.26-33.31,1.16-20.83-37.25-3.72-27.4,11.67h0ZM175.91,8.97c-3.23,1.54-4.93,5.16-4.04,8.65.89,3.47,4.1,5.86,7.67,5.68-3.28-.35-6-2.7-6.8-5.9-.81-3.2.45-6.57,3.17-8.43h0Z"/>
      <g>
        <line class="cls-2" x1="141.45" y1="109.9" x2="0" y2="114.4"/>
        <path class="cls-1" d="M141.46,110.1c-17.63,1-53.05,2.83-70.68,3.65-23.56,1.41-47.17,2.29-70.77.85,0,0-.01-.4-.01-.4,5.88-.76,11.76-1.3,17.64-1.77,17.65-1.55,35.34-1.76,53.03-1.88,17.62-.31,53.14-.73,70.77-.85,0,0,.01.4.01.4h0Z"/>
      </g>
    </g>
  </g>
</svg>