<?xml version="1.0" encoding="UTF-8"?>
<svg id="_レイヤー_2" data-name="レイヤー 2" xmlns="http://www.w3.org/2000/svg" viewBox="0 0 288.24 167.42">
  <defs>
    <style>
      .cls-1 {
        fill-rule: evenodd;
      }

      .cls-1, .cls-2 {
        fill: #fff;
      }
    </style>
  </defs>
  <g id="_レイヤー_7" data-name="レイヤー 7">
    <g>
      <g>
        <path class="cls-2" d="M27.03,153.37c-.77,0-1.29-.28-1.55-.83-.26-.55-.39-1.17-.39-1.85,0-.47.04-.93.11-1.39s.14-.84.21-1.14c.19-.89.49-1.95.92-3.19.42-1.23.91-2.54,1.46-3.91.55-1.37,1.13-2.73,1.74-4.08.61-1.35,1.2-2.62,1.78-3.8.57-1.19,1.09-2.2,1.53-3.05-.54.02-1.16.02-1.87-.02-.7-.04-1.43-.05-2.18-.05-1.29,0-2.57.1-3.82.3-1.26.2-2.28.66-3.08,1.39-.38.35-.65.73-.81,1.13-.16.4-.25.8-.25,1.2,0,.45.07.88.21,1.3.02.05.04.11.04.18,0,.23-.12.35-.35.35-.14,0-.25-.06-.32-.18-.23-.38-.4-.76-.51-1.14-.11-.39-.16-.77-.16-1.14,0-.66.12-1.28.35-1.87.23-.59.52-1.07.85-1.44.82-.96,1.94-1.6,3.35-1.92s2.88-.48,4.4-.48c1.17,0,2.32.05,3.43.14,1.11.09,2.11.16,2.98.21.82.05,1.84.12,3.06.23,1.22.11,2.41.16,3.56.16,1.03,0,1.96-.07,2.78-.21.82-.14,1.42-.4,1.8-.77.07.14.11.31.11.49,0,.49-.28.97-.85,1.44-.56.47-1.33.79-2.29.95-.31.05-.65.08-1.04.11-.39.02-.79.04-1.21.04-.7,0-1.41-.02-2.11-.05-.7-.04-1.33-.08-1.87-.12-.54-.05-.9-.06-1.09-.04-.14.21-.36.6-.65,1.16s-.6,1.17-.93,1.83c-.33.66-.62,1.26-.88,1.8-.45.94-.92,2-1.41,3.17-.49,1.17-.96,2.36-1.41,3.56-.45,1.2-.83,2.34-1.14,3.42-.32,1.08-.52,2.01-.62,2.78-.02.07-.04.15-.04.23v.23c0,.45.09.83.26,1.14.18.32.45.48.83.48.33,0,.73-.18,1.2-.53.47-.35,1.01-.94,1.62-1.76.12-.14.22-.21.32-.21.14,0,.21.12.21.35,0,.16-.05.39-.16.67s-.29.61-.55.99c-.21.31-.55.71-1.02,1.21-.47.5-.93.93-1.37,1.29-.4.33-.89.62-1.48.88-.59.26-1.15.39-1.69.39Z"/>
        <path class="cls-2" d="M45.09,153.72c-1.74,0-3.26-.25-4.58-.76-1.31-.5-2.34-1.32-3.06-2.45-.73-1.13-1.09-2.63-1.09-4.51s.31-3.71.93-5.51c.62-1.8,1.48-3.47,2.59-5.02,1.1-1.55,2.4-2.91,3.89-4.08,1.49-1.17,3.1-2.09,4.84-2.75,1.74-.66,3.54-.99,5.42-.99,2.09,0,3.79.35,5.11,1.06,1.31.7,2.28,1.66,2.9,2.87.62,1.21.93,2.57.93,4.07,0,2-.48,4.08-1.44,6.27-.99,2.23-2.28,4.24-3.87,6.02-1.6,1.78-3.46,3.19-5.58,4.23s-4.45,1.55-6.99,1.55ZM48.29,151.86c1.38-.38,2.75-1.07,4.08-2.08,1.34-1.01,2.55-2.22,3.63-3.63,1.08-1.41,1.94-2.89,2.57-4.44.99-2.37,1.48-4.6,1.48-6.69,0-.33-.02-.65-.05-.95-.04-.3-.08-.6-.12-.88-.26-1.43-.86-2.44-1.8-3.03-.94-.59-2-.88-3.17-.88s-2.46.24-3.73.72c-1.27.48-2.36,1.07-3.27,1.78-1.13.89-2.17,1.91-3.13,3.06-.96,1.15-1.77,2.37-2.43,3.66-.56,1.13-1.02,2.35-1.36,3.68-.34,1.33-.51,2.61-.51,3.86,0,1.13.16,2.16.49,3.1.33.94.87,1.7,1.62,2.27.75.58,1.75.86,2.99.86.8,0,1.7-.14,2.71-.42Z"/>
        <path class="cls-2" d="M62.34,152.6c.28-1.17.66-2.48,1.14-3.93.48-1.44,1.03-2.95,1.65-4.52.62-1.57,1.26-3.13,1.92-4.68s1.29-3.03,1.9-4.45c.61-1.42,1.31-2.86,2.11-4.31.16-.28.31-.54.44-.77.13-.23.28-.43.44-.6-.92.02-1.9.14-2.94.33-1.04.2-2.04.48-2.99.83s-1.76.76-2.43,1.23c-.67.47-1.1.99-1.29,1.55-.02.07-.07.11-.14.11-.21,0-.32-.16-.32-.49,0-.07.02-.18.07-.32.21-.61.48-1.15.79-1.62.32-.47.64-.87.97-1.2.77-.8,1.64-1.29,2.61-1.46.96-.18,1.98-.26,3.06-.26h8.91c1.62,0,2.92.25,3.89.74.97.49,1.67,1.14,2.09,1.95.42.81.59,1.67.49,2.59-.16,1.85-.82,3.39-1.95,4.6-1.14,1.21-2.47,2.11-4,2.69-1.06.4-2.25.72-3.59.97s-2.64.37-3.91.37c-.28,0-.56,0-.83-.02-.27-.01-.53-.03-.79-.05-.31.75-.63,1.59-.97,2.52-.34.93-.66,1.86-.95,2.8-.29.94-.53,1.81-.72,2.62-.19.81-.28,1.48-.28,2.02,0,.35.05.61.14.77h-4.54ZM69.88,141.29c1.08.02,2.21-.08,3.38-.3,1.17-.22,2.3-.6,3.38-1.13,1.08-.53,2-1.21,2.75-2.06.54-.61.96-1.31,1.27-2.09.3-.79.46-1.55.46-2.31,0-.96-.25-1.83-.74-2.61-.49-.77-1.28-1.28-2.36-1.51-.28-.07-.56-.12-.84-.14-.28-.02-.59-.05-.92-.07-.52.63-1.04,1.41-1.58,2.32-.54.92-1.06,1.87-1.57,2.87-.5,1-.97,1.96-1.41,2.89-.43.93-.79,1.73-1.07,2.41l-.74,1.73Z"/>
        <path class="cls-2" d="M90.2,152.6c.28-1.17.66-2.48,1.14-3.93s1.03-2.95,1.66-4.52c.62-1.57,1.26-3.13,1.92-4.68s1.29-3.03,1.9-4.45,1.31-2.86,2.11-4.31c.16-.28.31-.54.44-.77.13-.23.28-.43.44-.6-.92.02-1.9.14-2.94.33-1.04.2-2.04.48-2.99.83-.95.35-1.76.76-2.43,1.23-.67.47-1.1.99-1.29,1.55-.02.07-.07.11-.14.11-.21,0-.32-.16-.32-.49,0-.07.02-.18.07-.32.21-.61.48-1.15.79-1.62.32-.47.64-.87.97-1.2.77-.8,1.64-1.29,2.61-1.46.96-.18,1.98-.26,3.06-.26h8.91c1.62,0,2.92.25,3.89.74.97.49,1.67,1.14,2.1,1.95.42.81.59,1.67.49,2.59-.17,1.85-.82,3.39-1.95,4.6-1.14,1.21-2.47,2.11-4,2.69-1.06.4-2.25.72-3.59.97-1.34.25-2.64.37-3.91.37-.28,0-.56,0-.83-.02-.27-.01-.53-.03-.79-.05-.31.75-.63,1.59-.97,2.52-.34.93-.66,1.86-.95,2.8-.29.94-.53,1.81-.72,2.62-.19.81-.28,1.48-.28,2.02,0,.35.05.61.14.77h-4.54ZM97.73,141.29c1.08.02,2.21-.08,3.38-.3s2.3-.6,3.38-1.13c1.08-.53,1.99-1.21,2.75-2.06.54-.61.96-1.31,1.27-2.09.3-.79.46-1.55.46-2.31,0-.96-.25-1.83-.74-2.61-.49-.77-1.28-1.28-2.36-1.51-.28-.07-.56-.12-.85-.14-.28-.02-.59-.05-.92-.07-.52.63-1.04,1.41-1.58,2.32-.54.92-1.06,1.87-1.57,2.87-.5,1-.97,1.96-1.41,2.89-.43.93-.79,1.73-1.07,2.41l-.74,1.73Z"/>
        <path class="cls-2" d="M129.6,152.88c-.89,0-1.57-.24-2.04-.7-.47-.47-.79-1.07-.95-1.8-.16-.73-.27-1.48-.32-2.25,0-.45.02-.97.07-1.58.05-.61.11-1.2.19-1.78.08-.57.15-1,.19-1.29h-8.06c-1.5,1.57-2.93,3.1-4.28,4.6-1.35,1.49-2.67,3-3.96,4.52h-3.52c.61-.56,1.41-1.32,2.41-2.27s2.13-2.04,3.4-3.26c1.27-1.22,2.59-2.52,3.96-3.89,1.37-1.37,2.75-2.76,4.14-4.16,1.38-1.4,2.69-2.75,3.93-4.05,1.23-1.3,2.33-2.48,3.29-3.54.47-.52.91-1.04,1.32-1.57.41-.53.87-.97,1.39-1.32.52-.35,1.15-.53,1.9-.53h2.54c-.4.38-.8,1.01-1.2,1.9-.4.89-.76,1.85-1.07,2.89-.32,1.03-.58,1.97-.79,2.82-.31,1.27-.62,2.64-.93,4.12s-.57,2.95-.76,4.4c-.19,1.46-.25,2.81-.18,4.05.02.45.11.91.26,1.39.15.48.38.89.67,1.23.29.34.66.51,1.11.51.4,0,.83-.15,1.3-.46l.21.32c-.31.47-.89.87-1.74,1.2-.86.33-1.69.49-2.48.49ZM113.71,135.69c-.38-.4-.65-.81-.83-1.23-.18-.42-.26-.82-.26-1.2,0-.47.1-.92.3-1.36.2-.43.44-.8.72-1.11.56-.63,3.07-1.77,3.92-2.07.84-.3,1.74-.5,2.69-.58.95-.08,1.86-.12,2.73-.12h7.89c-.49.49-1.24.87-2.24,1.14-1,.27-2.08.47-3.26.6-1.17.13-2.31.25-3.4.35-1.09.11-1.99.24-2.69.4-1.24.28-3.99,1.49-4.64,2.28-.65.8-.96,1.76-.93,2.89ZM120.23,141.71h6.76c.28-1.55.62-3.1,1-4.65.39-1.55.73-2.91,1.04-4.08-1.43,1.36-2.89,2.78-4.38,4.24-1.49,1.47-2.96,2.96-4.42,4.49Z"/>
        <path class="cls-2" d="M144.28,153.93c-1.08,0-2.21-.12-3.4-.37-1.19-.25-2.18-.63-2.98-1.14-1.1-.75-1.91-1.71-2.43-2.89-.52-1.17-.77-2.45-.77-3.84s.23-2.83.69-4.33c.46-1.5,1.12-2.98,1.99-4.42.87-1.44,1.9-2.78,3.08-4.01,1.19-1.23,2.52-2.28,4-3.15,1.48-.87,3.05-1.47,4.72-1.8,1.06-.21,2.07-.32,3.03-.32,1.88,0,3.38.37,4.51,1.11,1.13.74,1.69,1.69,1.69,2.83,0,.24-.02.46-.05.69s-.11.46-.23.72c-.26.68-.69,1.29-1.29,1.81-.6.53-1.28.93-2.04,1.21-.76.28-4.22,1.32-5.01,1.27-.38-.05-.7-.18-.97-.4-.27-.22-.41-.5-.41-.83s.14-.68.42-1.06c.26.09.55.14.88.14.59,0,3.83-1.06,4.4-1.34.56-.28,1.03-.67,1.41-1.16s.56-1.04.56-1.66c0-.82-.28-1.37-.85-1.64-.56-.27-1.2-.4-1.9-.4-.47,0-.93.04-1.39.12-.46.08-.83.16-1.11.23-1.34.35-2.64,1.03-3.91,2.02-1.27,1-2.42,2.18-3.47,3.54-1.04,1.36-1.92,2.77-2.62,4.23-.45.94-.86,2.08-1.23,3.42-.38,1.34-.56,2.65-.56,3.94,0,.68.06,1.33.19,1.95.13.62.35,1.19.65,1.71.49.85,1.18,1.43,2.06,1.76.88.33,1.8.49,2.76.49.73,0,1.45-.06,2.17-.19.72-.13,1.37-.3,1.95-.51.75-.26,1.48-.62,2.18-1.07.7-.46,1.35-.98,1.94-1.57.66-.68,1.21-1.42,1.67-2.22.46-.8.76-1.63.9-2.5h-1.87c-1.03,0-2.1,0-3.2.02-1.1.01-1.94.06-2.5.16.33-.59.62-1.07.88-1.46.26-.39.53-.73.83-1.02s.57-.44.83-.44h10.32c-.16.89-.46,1.53-.88,1.9-.42.38-.95.62-1.58.74-.12.33-.23.65-.35.97-.12.32-.23.57-.35.76-1.31,2.7-3.11,4.71-5.39,6.02-2.28,1.31-4.93,1.97-7.96,1.97Z"/>
        <path class="cls-2" d="M160.73,152.6c-.38,0-.65-.15-.83-.46-.18-.3-.26-.7-.26-1.2,0-.68.11-1.48.33-2.39.22-.92.5-1.87.85-2.85.34-.99.69-1.93,1.04-2.83.35-.9.66-1.67.92-2.31h-1.94c-.19,0-.28-.07-.28-.21s.11-.33.32-.58c.21-.25.46-.46.74-.65s.52-.28.7-.28h1.2c.59-1.38,1.14-2.68,1.66-3.89.52-1.21,1.16-2.49,1.94-3.86.19-.33.36-.64.53-.93.16-.29.35-.56.56-.79-1.27.16-2.57.41-3.89.74-1.33.33-2.51.75-3.54,1.27-1.03.52-1.76,1.13-2.18,1.83-.02.07-.07.11-.14.11-.05,0-.09-.05-.12-.14s-.04-.2-.02-.32c.23-.61.53-1.2.88-1.76.35-.56.69-1.01,1.02-1.34.52-.54,1.22-.93,2.11-1.16.89-.23,1.81-.39,2.76-.46.95-.07,1.77-.11,2.45-.11h6.97c.82,0,1.55-.03,2.2-.09.65-.06,1.19-.09,1.64-.09.73,0,1.15.18,1.27.53.02.09.04.18.05.26.01.08.02.18.02.3,0,.47-.11,1-.32,1.6-.21.6-.44,1.17-.69,1.73-.25.55-.44,1-.58,1.36-.02.12-.09.2-.19.25-.11.05-.21.07-.3.07-.12,0-.22-.02-.32-.07-.07-.05-.09-.21-.05-.48.04-.27.09-.58.16-.93.07-.35.11-.66.11-.92,0-.75-.3-1.33-.9-1.74-.6-.41-1.34-.62-2.24-.62-.66,0-1.2.05-1.62.16-.42.11-.76.36-1.02.76-.94,1.39-1.79,2.81-2.55,4.26-.76,1.46-1.47,2.95-2.13,4.47h9.19c.07,0,.03.14-.12.42-.15.28-.34.57-.56.86-.22.29-.42.44-.58.44h-8.7c-.26.66-.56,1.46-.92,2.39-.35.94-.67,1.87-.97,2.78-.29.92-.52,1.7-.69,2.36-.14.56-.21,1.07-.21,1.51,0,.59.18,1.03.55,1.34.36.31,1,.46,1.92.46,1.27,0,2.54-.05,3.8-.16,1.27-.11,3.18.01,4.42-.18,1.49-.23,7.4-.84,8.23-1.35.83-.52,1.11-.52,1.76-2.42.05-.09.36-.28.46-.28.16,0,0,.27,0,.53,0,.05,0,.11-.02.18-.01.07-.03.15-.05.25-.19.61-.41,1.15-.67,1.62-.26.47-.53.87-.81,1.2-.66.8-7.53,1.38-8.57,1.56-1.03.18-2.07.26-3.1.26h-10.67Z"/>
      </g>
      <path class="cls-1" d="M248.25,31.09c10.11,15.83,31.94.25,19.26-8.44-.06-.04-.11-.08-.17-.13-.02,0-.04-.02-.06-.04v.02c-.3-.17-.64-.28-1-.28-1.1,0-1.99.89-1.99,1.99s.89,1.99,1.99,1.99,1.99-.89,1.99-1.99v-.04c8.03,7.57-10.38,19.31-18.82,6.15-13.8-21.62,40.39-42.77,37.3-16.15-6.7,37.47-56.52,37.66-78.82,99.53,1.46,5.79,3.03,10.62,4.68,14.5-2.03,11.66-2.23,19.77-.61,24.39,4.2-30.41,13.2-53.13,27-68.14-11.21,15.43-17.89,32.34-20.03,50.74,8.77-2.92,14.58-5.21,17.4-6.89.66-1.82,1.29-3.62,1.95-5.38.23-.68,4.13-3.05,4.39-3.71-3.03,1.76-9.85.59-14.45,3.62,2.06-2.78,10.24-3.67,11.7-4.37,3.28-8.92,6.34-16.66,9.49-24.25.4-.93,4.22-3.73,4.6-4.66-2.54,1.53-12.5,3.26-18.71,9.54,3.94-7.78,14.86-9.35,16.7-10.96,3.07-7.08,6.34-14.6,10.07-21.36.47-.85,4.39-2.9,4.9-3.75-2.12,1.21-10.07,4.18-11.42,4.41,1.8-.85,7.71-4.07,8.9-4.79,3.69-6.17,22.76-31.83,23.72-48.58,1.7-30.37-54.32-5.43-39.95,17.02h0ZM256.49,13.08c-4.7,2.25-7.18,7.52-5.89,12.61,1.29,5.06,5.98,8.54,11.19,8.29-4.79-.51-8.75-3.94-9.92-8.6-1.19-4.66.66-9.58,4.62-12.29h0Z"/>
      <g>
        <line class="cls-2" x1="206.25" y1="160.24" x2="0" y2="166.8"/>
        <path class="cls-2" d="M206.26,160.44c-25.72,1.26-77.37,3.61-103.08,4.68-34.36,1.76-68.75,2.98-103.17,1.88,0,0-.01-.4-.01-.4,8.58-.82,17.16-1.49,25.74-2.03,25.75-1.8,51.54-2.27,77.33-2.65,25.68-.56,77.48-1.51,103.17-1.88,0,0,.01.4.01.4h0Z"/>
      </g>
    </g>
  </g>
</svg>