<?xml version="1.0" encoding="UTF-8"?>
<svg id="_レイヤー_2" data-name="レイヤー 2" xmlns="http://www.w3.org/2000/svg" viewBox="0 0 1050.2 390.07">
  <defs>
    <style>
      .cls-1 {
        fill: none;
        stroke: #788080;
        stroke-miterlimit: 10;
      }
    </style>
  </defs>
  <g id="_レイヤー_7" data-name="レイヤー 7">
    <polyline class="cls-1" points="1049.39 .04 1049.15 2.62 1049.04 5.19 1049.02 7.76 1048.83 10.33 1048.83 12.9 1049.21 15.47 1048.87 18.04 1049.26 20.62 1049.23 23.19 1049.32 25.76 1048.81 28.34 1048.73 30.91 1049.52 33.48 1049.22 36.05 1049.38 38.62 1049.39 41.2 1049.31 43.77 1049.67 46.34 1048.84 48.91 1049.05 51.48 1049.54 54.05 1048.75 56.63 1049.52 59.2 1049.66 61.77 1049.13 64.35 1049.55 66.92 1049.39 69.49 1049 72.07 1049.57 74.64 1048.8 77.21 1049.57 79.78 1049.62 82.35 1049.35 84.93 1049.51 87.5 1049.65 90.07 1049.31 92.65 1049.5 95.22 1049.43 97.79 1049.4 100.37 1049.08 102.94 1048.92 105.51 1049.28 108.08 1049.05 110.66 1049.1 113.23 1048.93 115.8 1049.66 118.38 1049.36 120.95 1049.31 123.53 1049.69 126.1 1049.51 128.67 1048.81 131.24 1049.42 133.81 1048.84 136.39 1049.05 138.96 1049.31 141.53 1048.87 144.11 1049.11 146.68 1049.13 149.25 1049.44 151.82 1049.41 154.39 1049.26 156.95 1048.85 159.52 1048.81 162.09 1049.07 164.66 1048.99 167.24 1049.36 169.81 1049.53 172.38 1049.01 174.96 1049.23 177.53 1048.82 180.1 1049.37 182.67 1049.05 185.24 1049.51 187.82 1049.3 190.39 1049.57 192.96 1049.41 195.53 1048.76 198.11 1049.64 200.68 1048.9 203.26 1049.49 205.83 1049.24 208.4 1049.16 210.98 1048.94 213.55 1049.07 216.12 1048.98 218.7 1048.99 221.27 1049.2 223.85 1048.95 226.42 1049.36 229 1049.17 231.57 1048.99 234.15 1049.31 236.72 1049.37 239.3 1049.17 241.87 1049.66 244.45 1048.79 247.03 1048.96 249.6 1049 252.18 1049.25 254.75 1049.64 257.33 1049.16 259.91 1049.47 262.48 1049 265.06 1048.82 267.63 1049.46 270.2 1048.94 272.78 1048.83 275.35 1049.62 277.93 1048.84 280.5 1049.04 283.08 1049.25 285.66 1049.44 288.23 1049.24 290.81 1049.61 293.39 1048.84 295.97 1049.4 298.55 1048.76 301.13 1049.48 303.7 1049.7 306.28 1049.5 308.86 1049.27 311.44 1049.29 314.03 1049.01 316.61 1048.85 319.13 1047.15 320.81 1045.36 322.7 1043.64 324.66 1041.53 326.24 1039.82 328.21 1038 330.07 1036.47 332.22 1034.56 333.98 1032.32 335.42 1030.75 337.53 1028.87 339.33 1026.96 341.1 1025.17 342.99 1023.26 344.76 1021.68 346.87 1019.65 348.52 1018 350.55 1016.21 352.44 1014.23 354.13 1012.67 356.25 1010.27 357.5 1008.59 359.49 1006.86 361.42 1005.09 363.33 1003.28 365.18 1001.33 366.89 999.33 368.56 997.63 370.54 995.73 372.31 994.15 374.41 992.45 376.39 990.63 378.24 988.47 379.77 986.63 381.6 984.58 383.23 982.77 385.1 981.32 387.34 979.32 388.86 976.79 389.51 974.22 389.37 971.65 389.51 969.08 389.01 966.52 388.71 963.95 388.81 961.38 389.09 958.81 389.01 956.24 389.39 953.68 389.28 951.11 389.41 948.54 388.69 945.97 388.85 943.4 389.07 940.84 389.49 938.27 389.43 935.7 389.29 933.13 388.6 930.56 388.64 927.99 388.86 925.43 389.04 922.86 388.86 920.29 389.18 917.72 389.04 915.15 389.39 912.58 389.19 910.01 389.36 907.44 388.89 904.87 389.52 902.3 388.65 899.73 389.39 897.16 388.83 894.59 389.51 892.02 389.07 889.45 388.78 886.88 389.5 884.31 389.07 881.74 389.03 879.17 388.76 876.6 389.51 874.03 388.92 871.47 388.79 868.9 389.15 866.33 389.12 863.76 389.4 861.19 389.46 858.62 389.36 856.05 388.72 853.48 389.33 850.92 389.49 848.35 388.88 845.78 389.01 843.21 388.69 840.64 388.59 838.07 388.96 835.5 388.9 832.94 389.01 830.37 389.48 827.8 388.84 825.23 388.85 822.66 389.26 820.09 389.19 817.52 389.28 814.95 388.77 812.39 388.97 809.82 388.58 807.25 388.67 804.68 389.13 802.11 389.36 799.54 388.77 796.97 389.46 794.4 389.48 791.82 389.34 789.25 388.98 786.68 389.33 784.11 389.01 781.54 389.05 778.97 388.74 776.4 388.64 773.84 389.3 771.27 388.83 768.7 388.74 766.13 388.74 763.56 388.91 760.99 389.27 758.42 389.32 755.85 388.62 753.28 389 750.71 389.32 748.15 388.99 745.58 389.48 743.01 388.64 740.44 388.98 737.87 388.9 735.3 388.69 732.73 388.87 730.16 388.62 727.59 388.63 725.02 388.72 722.45 389.28 719.88 389.46 717.31 389.21 714.74 388.58 712.17 389.27 709.6 389.26 707.03 388.8 704.46 389.21 701.89 389.51 699.32 388.7 696.75 388.95 694.18 389.52 691.61 388.93 689.05 389.51 686.48 388.81 683.91 389.39 681.35 388.75 678.78 388.94 676.21 389.19 673.65 389.42 671.08 388.79 668.51 389.45 665.95 388.89 663.38 388.67 660.82 388.74 658.25 389.35 655.69 389.28 653.12 389.22 650.56 389.46 647.99 389.22 645.43 389.37 642.86 388.79 640.3 388.96 637.74 388.8 635.17 389.46 632.61 389.27 630.04 389.38 627.48 389.33 624.91 388.62 622.35 389.32 619.78 389.43 617.22 388.77 614.65 389.04 612.08 388.97 609.52 389.54 606.95 389.16 604.38 389.54 601.82 389.33 599.25 389.37 596.68 389.38 594.11 389.26 591.55 389.41 588.98 388.83 586.41 388.57 583.84 388.76 581.27 389.09 578.7 389.29 576.12 388.57 573.55 388.73 570.98 389.21 568.41 389.04 565.84 388.57 563.27 389.34 560.7 388.98 558.13 388.84 555.56 389.34 553 389.52 550.43 389.45 547.86 389.48 545.29 389.22 542.72 389.22 540.16 389.48 537.59 389.24 535.02 389.24 532.46 388.86 529.89 388.74 527.32 389.2 524.76 388.6 522.19 389.18 519.62 389.31 517.06 389.28 514.49 388.83 511.92 389.48 509.36 389.41 506.79 388.88 504.22 388.86 501.65 388.57 499.08 388.69 496.52 389.07 493.95 389.35 491.38 389.55 488.81 388.83 486.24 389.28 483.67 389.49 481.09 389.5 478.52 388.69 475.95 389.26 473.38 388.57 470.81 389.3 468.24 388.85 465.67 389.39 463.09 388.65 460.53 388.77 457.96 388.76 455.39 389.04 452.82 388.6 450.25 389.18 447.68 389.37 445.11 389.15 442.54 388.66 439.98 389.39 437.41 389.37 434.84 388.64 432.27 389.02 429.7 388.71 427.13 389.02 424.56 388.83 422 389.55 419.43 388.71 416.86 388.7 414.29 389.53 411.72 388.98 409.14 388.97 406.57 388.99 404 388.98 401.43 388.84 398.86 389.21 396.28 388.61 393.71 389.21 391.14 389.49 388.57 388.62 386 388.96 383.43 389.08 380.86 389.36 378.29 388.87 375.72 388.56 373.15 388.63 370.58 388.88 368.01 388.66 365.44 389.17 362.87 388.78 360.3 389.21 357.73 389.23 355.16 388.82 352.59 389.27 350.02 389.25 347.45 388.74 344.87 388.63 342.3 388.73 339.73 388.9 337.16 388.96 334.58 388.64 332.01 388.78 329.44 389.23 326.87 389.1 324.3 389.4 321.73 389.11 319.16 389.51 316.59 389.23 314.02 388.69 311.45 389.32 308.88 388.67 306.31 389.21 303.73 389.05 301.16 388.69 298.59 389.11 296.02 389.52 293.44 389.53 290.87 389.43 288.3 388.62 285.73 388.89 283.15 389.25 280.58 388.63 278.01 389.17 275.44 389.16 272.87 389.27 270.3 388.63 267.73 389.33 265.15 389.23 262.58 389.41 260.01 388.8 257.43 389.19 254.86 389.53 252.29 389.3 249.72 388.59 247.14 389.42 244.57 388.98 242 389.55 239.43 388.79 236.86 389.43 234.28 388.74 231.71 389.17 229.14 388.9 226.56 389.17 223.99 388.69 221.42 389.2 218.84 389.5 216.27 388.71 213.7 389.1 211.13 388.6 208.56 389.53 205.98 388.92 203.41 389.34 200.83 389.48 198.26 389.41 195.69 389.46 193.11 389.08 190.54 388.61 187.97 388.85 185.4 388.6 182.83 388.77 180.25 389.31 177.68 389.4 175.11 388.75 172.54 389.01 169.97 388.77 167.4 389.36 164.83 389.42 162.26 389.54 159.69 388.71 157.12 389.31 154.55 389.53 151.98 389.32 149.41 388.59 146.83 388.9 144.26 388.62 141.69 388.6 139.11 389.23 136.54 388.96 133.97 389 131.4 389.42 128.83 389 126.26 388.67 123.68 389.4 121.11 389.41 118.53 389.52 115.96 388.97 113.39 389.06 110.82 389.25 108.24 389 105.67 388.73 103.09 388.95 100.52 388.85 97.94 389.07 95.37 389.06 92.8 388.92 90.22 389.42 87.65 389.41 85.07 389.17 82.5 388.61 79.92 388.63 77.35 388.93 74.77 389.1 72.2 388.81 69.62 388.95 67.04 388.74 64.47 388.94 61.89 389.15 59.32 389.38 56.74 388.76 54.16 388.67 51.59 388.84 49.02 388.7 46.44 389.22 43.87 389.27 41.3 389.21 38.72 389.38 36.14 388.82 33.57 389.32 30.99 388.97 28.41 389.38 25.83 388.88 23.26 388.69 20.68 388.77 18.1 388.86 15.52 389.18 12.94 389.45 10.36 389.09 7.78 389.17 5.2 388.85 2.61 388.75 .03 388.89"/>
  </g>
</svg>