<?xml version="1.0" encoding="UTF-8"?>
<svg id="_レイヤー_2" data-name="レイヤー 2" xmlns="http://www.w3.org/2000/svg" viewBox="0 0 1050.27 390.04">
  <defs>
    <style>
      .cls-1 {
        fill: none;
        stroke: #62361d;
        stroke-miterlimit: 10;
      }
    </style>
  </defs>
  <g id="_固定" data-name="固定">
    <polyline class="cls-1" points="1049.41 0 1049.44 2.58 1049.51 5.15 1048.84 7.72 1049.07 10.29 1049.19 12.86 1049.62 15.43 1049.32 18 1048.86 20.58 1048.91 23.15 1049.39 25.72 1049.55 28.3 1048.86 30.87 1049.68 33.44 1049.01 36.01 1049.43 38.58 1049.2 41.16 1049 43.73 1049.04 46.3 1049.72 48.87 1049.5 51.44 1049.6 54.01 1048.98 56.59 1048.89 59.16 1048.9 61.73 1049.05 64.31 1048.97 66.88 1049.58 69.45 1049.01 72.03 1049.52 74.6 1049.27 77.17 1049.68 79.74 1049.51 82.31 1049.07 84.89 1049.46 87.46 1049.37 90.03 1049.7 92.61 1049.01 95.18 1048.93 97.75 1048.95 100.33 1048.82 102.9 1049.56 105.47 1049.67 108.04 1049.04 110.62 1049.36 113.19 1049.35 115.76 1048.97 118.34 1048.93 120.91 1049.19 123.49 1049.06 126.06 1048.88 128.63 1049.46 131.2 1049.73 133.77 1048.78 136.35 1049.19 138.92 1049.54 141.5 1049.01 144.07 1049.22 146.64 1048.8 149.21 1049.36 151.78 1048.9 154.35 1049.48 156.92 1049.05 159.48 1049.62 162.05 1049.21 164.62 1049.54 167.2 1049.09 169.77 1048.81 172.34 1049.03 174.92 1049.06 177.49 1049.73 180.06 1049.72 182.63 1049.03 185.2 1049.75 187.78 1048.92 190.35 1049.4 192.92 1049.06 195.49 1048.81 198.07 1049.27 200.64 1049.6 203.22 1049.76 205.79 1048.8 208.36 1049.72 210.94 1049 213.51 1049.58 216.08 1049.42 218.66 1048.87 221.23 1049.26 223.81 1049.75 226.38 1049.46 228.96 1049 231.53 1049.14 234.11 1048.85 236.68 1049.48 239.26 1049.29 241.83 1049.71 244.41 1049.41 246.99 1049.55 249.56 1049.33 252.14 1049.03 254.71 1048.96 257.29 1049.47 259.87 1049.38 262.44 1049.22 265.02 1049.45 267.59 1048.84 270.16 1049.46 272.74 1049.24 275.31 1049.02 277.89 1049.48 280.46 1048.78 283.04 1049.38 285.62 1049.18 288.2 1049.49 290.77 1049.53 293.35 1048.91 295.93 1049.57 298.51 1049.48 301.09 1049.64 303.66 1049.6 306.24 1048.96 308.82 1049.21 311.4 1049.4 313.99 1049.72 316.57 1049.1 319.12 1047.43 321 1045.82 323.07 1043.79 324.73 1042.24 326.86 1039.85 328.15 1038.14 330.11 1036.42 332.07 1034.82 334.15 1032.53 335.54 1031.21 337.9 1028.8 339.16 1026.86 340.9 1025.4 343.13 1023.77 345.18 1021.86 346.96 1020.06 348.83 1018.1 350.56 1015.86 352 1014.2 354.01 1012.64 356.11 1010.85 358 1008.82 359.63 1006.92 361.39 1005.31 363.45 1003.52 365.33 1001.75 367.22 999.44 368.58 997.81 370.62 995.84 372.32 993.86 374.02 992.32 376.16 990.35 377.87 988.6 379.8 986.68 381.56 984.6 383.16 983.39 385.62 980.92 386.84 979.46 389.28 976.84 389.1 974.27 389.29 971.71 388.9 969.14 389 966.57 389.02 964 389.35 961.43 388.7 958.87 388.58 956.3 389.51 953.73 389.2 951.16 389.15 948.59 389.21 946.03 389.3 943.46 389.29 940.89 389.38 938.32 388.76 935.75 388.95 933.19 389.22 930.62 388.7 928.05 389.31 925.48 388.52 922.91 388.83 920.34 388.58 917.77 389.08 915.21 389.27 912.64 389.46 910.07 389.24 907.5 389.33 904.93 389.05 902.36 389.18 899.79 388.96 897.22 389.28 894.65 388.99 892.08 389.12 889.51 388.71 886.94 388.57 884.37 389.27 881.8 388.9 879.23 389.25 876.66 389.21 874.09 389.43 871.52 389.24 868.95 389.51 866.38 388.75 863.81 389.08 861.24 388.68 858.68 389.17 856.11 389.49 853.54 389.51 850.97 388.59 848.4 389.31 845.83 389.34 843.26 388.97 840.7 389.31 838.13 389.11 835.56 389.43 832.99 389.14 830.42 388.68 827.85 389.43 825.28 388.9 822.72 388.69 820.15 388.74 817.58 389.29 815.01 388.95 812.44 389.22 809.87 388.88 807.3 388.94 804.73 388.67 802.16 388.64 799.59 389.25 797.02 388.72 794.45 388.71 791.88 389.3 789.31 388.67 786.74 389.32 784.17 389.22 781.6 388.78 779.03 388.8 776.46 388.6 773.89 389.3 771.32 388.83 768.75 389.01 766.18 388.72 763.61 389.21 761.04 389.23 758.47 389.45 755.91 389.49 753.34 388.63 750.77 389.1 748.2 388.88 745.63 388.96 743.06 389.33 740.49 389.49 737.92 388.91 735.35 389.03 732.79 389.37 730.22 388.71 727.65 388.88 725.08 389.03 722.51 389.32 719.94 389.25 717.37 389.28 714.8 389.27 712.23 388.55 709.66 388.74 707.09 388.97 704.51 389.26 701.94 389.13 699.38 388.85 696.81 388.84 694.24 388.73 691.67 389.3 689.1 389.51 686.53 389.41 683.97 389.17 681.4 389.21 678.83 389.38 676.27 388.97 673.7 388.97 671.13 388.69 668.57 388.98 666 388.68 663.44 388.85 660.87 388.91 658.31 389.37 655.74 389.25 653.18 388.79 650.61 388.68 648.05 388.78 645.48 388.67 642.92 389.01 640.35 389.05 637.79 389.12 635.22 388.62 632.66 389.2 630.1 389.26 627.53 388.81 624.97 388.92 622.4 388.7 619.84 389.52 617.27 388.68 614.7 388.75 612.14 388.78 609.57 388.64 607.01 388.57 604.44 388.99 601.87 388.56 599.3 389.11 596.74 389.39 594.17 389.41 591.6 388.9 589.03 388.61 586.46 389.03 583.89 388.98 581.32 388.78 578.75 389.44 576.18 389.15 573.61 389.1 571.04 389.4 568.47 389.02 565.9 389.13 563.33 389.11 560.76 388.63 558.19 388.91 555.62 389.18 553.05 388.69 550.48 388.96 547.91 389.35 545.35 388.94 542.78 388.56 540.21 388.65 537.64 388.95 535.08 388.53 532.51 389.27 529.94 389.12 527.38 389.47 524.81 389.44 522.24 389.26 519.68 389.44 517.11 389.27 514.54 389.14 511.98 389.09 509.41 388.84 506.84 389.46 504.27 388.89 501.71 388.97 499.14 389.09 496.57 389.25 494 388.56 491.43 388.6 488.86 388.79 486.29 388.58 483.72 388.9 481.15 389.34 478.58 389.25 476 389.51 473.43 389.25 470.86 388.68 468.29 389.18 465.72 389.41 463.15 388.98 460.58 389.21 458.01 388.76 455.44 388.55 452.87 388.59 450.3 388.92 447.73 389.28 445.17 389.01 442.6 388.93 440.03 388.99 437.46 389 434.89 388.53 432.32 389.41 429.76 389.08 427.19 389.47 424.62 389.31 422.05 388.63 419.48 389.12 416.91 388.78 414.34 389.22 411.77 389.24 409.2 388.66 406.63 389.08 404.06 388.58 401.48 388.61 398.91 388.76 396.34 388.91 393.77 388.97 391.19 389.09 388.62 388.57 386.05 388.63 383.48 389.02 380.91 389.21 378.34 389.49 375.77 389.38 373.2 388.93 370.64 388.96 368.07 388.99 365.5 388.94 362.93 389.48 360.36 389.29 357.79 389.23 355.22 389.12 352.65 389.3 350.07 388.91 347.5 389.26 344.93 388.66 342.36 389.29 339.78 388.7 337.21 389.19 334.64 389.5 332.07 388.74 329.5 388.73 326.92 388.96 324.35 388.52 321.78 389.27 319.21 389.22 316.64 389.08 314.07 389.31 311.5 388.95 308.93 389.32 306.36 389.14 303.79 389.24 301.22 388.83 298.64 389.27 296.07 389.29 293.5 389.47 290.92 389.27 288.35 388.63 285.78 388.58 283.21 388.96 280.64 389.14 278.07 389.16 275.49 389.31 272.92 389.32 270.35 389.48 267.78 389.22 265.21 389.28 262.64 389.4 260.06 388.53 257.49 388.97 254.91 389.2 252.34 388.56 249.77 388.76 247.2 389.49 244.63 388.99 242.05 388.55 239.48 388.93 236.91 389.06 234.34 389.27 231.77 388.78 229.19 388.65 226.62 389.52 224.04 388.92 221.47 389.09 218.9 389.5 216.33 389.25 213.75 388.78 211.18 388.67 208.61 389.26 206.04 389.51 203.46 388.55 200.89 389.33 198.31 389.3 195.74 388.59 193.17 388.86 190.6 388.76 188.02 388.55 185.45 388.85 182.88 388.58 180.31 388.85 177.73 389.22 175.16 388.71 172.59 389.47 170.02 388.91 167.45 388.73 164.88 388.87 162.31 388.99 159.75 388.74 157.18 388.87 154.61 388.88 152.03 388.59 149.46 389.34 146.89 388.78 144.31 389.13 141.74 389.23 139.17 389.42 136.6 388.71 134.03 388.63 131.46 389.42 128.88 389.27 126.31 389.14 123.74 389.4 121.16 388.54 118.59 389.21 116.01 389.28 113.44 389.03 110.87 388.77 108.3 389.28 105.72 389.49 103.15 389.22 100.57 389.37 98 389.35 95.43 388.57 92.85 388.62 90.28 388.59 87.7 389.19 85.13 388.64 82.55 389.14 79.98 389.01 77.4 388.82 74.82 389.42 72.25 388.84 69.67 388.58 67.1 388.64 64.52 388.59 61.95 389.52 59.37 389.19 56.79 388.64 54.22 389.19 51.65 389.27 49.07 388.93 46.5 389.23 43.92 388.66 41.35 389.02 38.77 388.97 36.2 388.9 33.62 389.44 31.04 389.35 28.47 389.23 25.89 389.37 23.31 388.81 20.73 388.63 18.15 388.65 15.58 389.36 13 388.81 10.42 388.77 7.84 389.44 5.25 388.67 2.67 389.03 .08 389.46"/>
  </g>
</svg>