<?xml version="1.0" encoding="UTF-8"?>
<svg id="_レイヤー_2" data-name="レイヤー 2" xmlns="http://www.w3.org/2000/svg" viewBox="0 0 785.24 350.07">
  <defs>
    <style>
      .cls-1 {
        fill: none;
        stroke: #788080;
        stroke-miterlimit: 10;
      }
    </style>
  </defs>
  <g id="_レイヤー_7" data-name="レイヤー 7">
    <polyline class="cls-1" points="1.06 349.99 1.47 347.44 1.26 344.88 1.25 342.32 .78 339.76 1.2 337.2 1.13 334.64 1.47 332.09 .73 329.53 1.11 326.96 1.18 324.4 .8 321.84 1.3 319.29 .94 316.73 1.38 314.17 1.39 311.61 1.01 309.05 1.08 306.49 1.03 303.93 1.44 301.37 1.04 298.81 1.42 296.25 1.48 293.69 1.43 291.13 .77 288.57 .62 286.01 1.5 283.45 .88 280.89 1.05 278.34 .92 275.78 1.01 273.22 1.44 270.65 .71 268.09 .93 265.53 1.09 262.97 1.47 260.41 .95 257.86 1.33 255.3 1.08 252.74 .87 250.18 1.17 247.62 1 245.06 .64 242.5 1.37 239.94 .91 237.39 1.47 234.83 .56 232.28 .94 229.72 1.33 227.17 1.31 224.61 1.25 222.05 .64 219.49 1.08 216.93 1.21 214.37 .67 211.81 .58 209.25 .8 206.69 1.45 204.13 .58 201.58 1.14 199.02 1.31 196.46 .51 193.9 .98 191.34 1.33 188.77 .54 186.21 .54 183.65 .51 181.1 1.34 178.54 1.32 175.98 1.33 173.41 .76 170.85 1.1 168.29 1.2 165.73 .62 163.17 1.19 160.61 1.04 158.05 1.19 155.48 1.4 152.92 .7 150.36 .77 147.8 .81 145.23 .84 142.67 1.46 140.11 .9 137.55 1.24 134.98 .85 132.42 1.03 129.86 .69 127.3 .89 124.73 .54 122.18 .6 119.62 .85 117.05 1.33 114.49 .79 111.93 1 109.37 1.04 106.8 .84 104.24 1.23 101.68 .59 99.11 1.46 96.55 1.45 93.98 .66 91.42 .71 88.85 1.11 86.29 .82 83.72 1.42 81.16 .56 78.59 1.08 76.02 .77 73.45 .55 70.78 3.11 69.29 4.96 67.46 6.46 65.27 8.62 63.75 10.04 61.49 11.97 59.74 13.89 57.98 15.93 56.35 17.51 54.25 19.1 52.17 21.02 50.41 22.78 48.48 24.81 46.83 26.68 45.02 28.72 43.37 30.14 41.11 32.25 39.54 34.44 38.05 36.13 36.07 38.08 34.35 39.98 32.59 41.2 30.14 43.1 28.38 44.95 26.56 47.02 24.97 48.49 22.77 50.89 21.49 52.66 19.6 53.99 17.26 56.1 15.69 58.07 13.98 59.61 11.84 61.5 10.05 63.51 8.39 65.62 6.81 67.15 4.66 69.3 3.12 70.78 .54 73.44 .65 76.01 1.43 78.58 1.29 81.15 .77 83.72 1.21 86.29 .66 88.86 .64 91.42 1.33 93.99 .68 96.56 .61 99.12 1.29 101.69 1.1 104.26 .67 106.82 .92 109.39 1.48 111.95 .84 114.52 1.36 117.08 .99 119.64 .64 122.21 .88 124.77 1.5 127.34 .56 129.9 1.1 132.46 1.35 135.03 .57 137.59 .65 140.15 .64 142.72 .61 145.28 1.43 147.84 1.3 150.41 .64 152.97 .96 155.53 1.35 158.1 1.18 160.66 .66 163.23 .52 165.79 .79 168.35 1.41 170.92 1.48 173.48 1.49 176.05 .64 178.61 .7 181.18 1.09 183.74 1.35 186.31 1.48 188.88 1.15 191.44 .91 194.01 1.36 196.58 1.43 199.15 .76 201.71 .68 204.28 1.13 206.85 1.26 209.42 1.1 211.99 1.18 214.56 1.22 217.13 1.25 219.7 1.11 222.27 1.34 224.84 .82 227.41 1.48 229.97 1.43 232.54 .91 235.11 1.5 237.68 1.09 240.24 1.37 242.81 1.18 245.37 .8 247.94 1.12 250.51 .89 253.07 .89 255.64 .9 258.2 .61 260.77 .53 263.33 .99 265.9 1.18 268.46 1.29 271.03 .88 273.59 1.22 276.16 .64 278.73 .85 281.29 1.39 283.86 1.16 286.43 1.16 288.99 1 291.56 1.22 294.13 .9 296.7 .68 299.27 1.18 301.84 .8 304.41 .83 306.98 1.04 309.55 1.37 312.12 .89 314.69 .71 317.26 .74 319.83 .7 322.4 .83 324.97 .56 327.54 1.28 330.1 1.26 332.67 .64 335.24 .53 337.81 1.31 340.37 1.02 342.94 .81 345.51 1.26 348.07 1.36 350.64 1.12 353.21 1.39 355.77 .96 358.34 1.35 360.91 1.39 363.48 1.2 366.05 .59 368.61 .52 371.18 1.43 373.75 .66 376.32 1.45 378.89 1.08 381.46 1.19 384.04 1.39 386.61 .66 389.18 1.36 391.75 1.28 394.32 .71 396.89 .62 399.46 1.46 402.03 .87 404.59 1.36 407.16 1.13 409.73 1.39 412.3 .56 414.87 .66 417.43 1.12 420 .67 422.57 1.13 425.14 1.18 427.71 .73 430.28 1.34 432.85 1.31 435.42 1.45 437.99 .77 440.56 1.39 443.13 .63 445.7 1.45 448.28 1.09 450.85 1.46 453.42 .6 455.99 .69 458.56 1.11 461.13 1.01 463.69 .98 466.26 .52 468.83 .95 471.4 .61 473.97 .72 476.54 1.36 479.11 1.32 481.68 .66 484.25 1.11 486.82 .71 489.4 .8 491.97 1.24 494.54 .76 497.11 1.42 499.68 1.5 502.25 1.17 504.82 1.04 507.39 1.29 509.96 .84 512.53 1.3 515.1 .52 517.67 1.25 520.24 1.37 522.81 .87 525.39 1.03 527.96 1.39 530.53 1.37 533.1 .99 535.67 .9 538.24 1 540.81 1.26 543.39 1.25 545.96 1.08 548.53 .8 551.1 1.45 553.67 1.32 556.24 .54 558.81 .8 561.39 .59 563.96 .56 566.53 .81 569.1 .61 571.67 1.07 574.24 .67 576.81 .92 579.39 .88 581.96 .6 584.53 1.22 587.1 .73 589.68 .71 592.25 .62 594.82 1.14 597.39 .81 599.96 1.49 602.53 .59 605.1 1.12 607.67 .89 610.25 1.23 612.82 .72 615.38 .79 617.95 1.09 620.52 .77 623.09 1.38 625.65 .82 628.22 .86 630.79 .82 633.36 1.47 635.93 .75 638.51 .94 641.08 1.44 643.65 1.29 646.22 .61 648.79 1.16 651.36 .75 653.93 1.05 656.5 1.25 659.07 1.45 661.64 1.44 664.22 1.44 666.79 1.43 669.36 .97 671.93 1.01 674.51 .69 677.08 1.47 679.65 .53 682.22 1.32 684.8 1.34 687.37 .69 689.94 1.32 692.51 1.16 695.09 1.06 697.66 1.28 700.24 1.23 702.81 .64 705.38 1.02 707.96 .95 710.53 .54 713.11 1.11 715.68 .96 718.26 .88 720.83 1.47 723.4 1.18 725.98 1.4 728.56 1.46 731.13 1.23 733.7 .81 736.27 1.43 738.85 1.27 741.42 1.12 743.99 .98 746.57 1.11 749.14 .65 751.72 1.42 754.29 .74 756.87 1.28 759.45 .64 762.02 1.4 764.6 1.36 767.18 .63 769.75 1.35 772.33 1.31 774.91 1.32 777.49 .87 780.07 .62 782.65 .75 785.24 .75"/>
  </g>
</svg>