<?xml version="1.0" encoding="UTF-8"?>
<svg id="_レイヤー_2" data-name="レイヤー 2" xmlns="http://www.w3.org/2000/svg" viewBox="0 0 868.39 779.93">
  <defs>
    <style>
      .cls-1 {
        fill: none;
        stroke: #9a8f79;
        stroke-miterlimit: 10;
      }
    </style>
  </defs>
  <g id="back">
    <polygon class="cls-1" points="817.87 779.21 815.2 779.3 812.62 778.71 810.05 778.72 807.48 779.01 804.91 779.09 802.34 778.94 799.76 779.03 797.19 779.03 794.62 778.95 792.05 778.79 789.47 779.02 786.9 778.77 784.33 779.06 781.76 778.6 779.18 778.86 776.61 778.91 774.04 779.4 771.46 778.66 768.89 778.49 766.32 778.78 763.74 778.46 761.17 779.23 758.59 779.1 756.02 778.79 753.45 779.12 750.87 779.4 748.3 778.83 745.73 779.34 743.16 779.02 740.59 778.7 738.01 779.34 735.44 779.17 732.87 779.12 730.3 779.29 727.73 779.12 725.16 779.33 722.59 778.78 720.03 778.74 717.46 779.18 714.89 779.05 712.32 779.23 709.75 779.25 707.18 779.11 704.61 778.48 702.05 778.45 699.48 779.2 696.91 779.02 694.34 778.56 691.77 778.6 689.21 778.99 686.64 778.49 684.07 779.25 681.5 778.93 678.93 779.01 676.36 778.94 673.8 779.09 671.23 779.23 668.66 778.73 666.09 778.47 663.52 779.4 660.95 778.93 658.38 778.71 655.81 778.79 653.24 779.2 650.67 778.67 648.1 778.58 645.53 779.25 642.95 779.08 640.38 778.72 637.81 778.66 635.24 779.32 632.66 779.03 630.09 778.83 627.51 778.51 624.94 778.85 622.36 778.62 619.79 779.04 617.22 778.8 614.64 778.43 612.07 779.39 609.5 778.95 606.93 778.97 604.35 778.9 601.78 778.93 599.21 779.05 596.64 779.07 594.07 778.66 591.5 778.48 588.93 778.61 586.36 779.13 583.79 778.64 581.22 778.53 578.65 778.52 576.08 778.53 573.51 778.65 570.94 779.23 568.37 778.97 565.8 778.75 563.23 778.97 560.65 779.16 558.08 779.03 555.51 778.95 552.94 778.84 550.37 779.2 547.8 779.1 545.23 778.66 542.65 778.76 540.08 779.07 537.51 779.39 534.93 779.17 532.36 779.27 529.78 779.25 527.21 779.34 524.63 778.85 522.06 779.11 519.48 778.93 516.91 779.1 514.33 778.99 511.76 778.42 509.19 778.67 506.61 778.97 504.04 779.28 501.47 778.87 498.9 779.32 496.33 779.03 493.75 778.75 491.18 779.34 488.61 779.05 486.04 778.82 483.47 779.15 480.9 779.21 478.32 778.89 475.75 779.15 473.18 778.49 470.61 778.72 468.03 778.73 465.46 779.12 462.89 778.95 460.31 779.39 457.74 779.14 455.16 779.38 452.58 778.73 450.01 779.24 447.43 778.9 444.86 778.47 442.28 779.07 439.71 778.55 437.13 778.77 434.56 778.64 431.99 778.97 429.41 778.96 426.84 779.25 424.27 778.82 421.7 779 419.12 778.72 416.55 778.78 413.98 778.98 411.4 778.62 408.83 778.84 406.26 779.37 403.68 778.78 401.11 779.25 398.53 778.91 395.96 779.01 393.38 778.77 390.8 778.81 388.23 779.41 385.65 778.68 383.08 778.82 380.5 778.79 377.93 779.31 375.35 778.52 372.78 779.16 370.21 778.58 367.63 778.58 365.06 778.99 362.48 778.79 359.91 779.17 357.33 778.68 354.76 779.39 352.18 778.52 349.61 778.87 347.03 778.5 344.45 778.74 341.88 778.46 339.3 779.28 336.73 778.79 334.15 779.31 331.58 779.14 329 779.06 326.43 778.65 323.85 778.82 321.28 779.21 318.7 778.72 316.13 779.03 313.55 778.66 310.98 778.88 308.4 779.12 305.82 778.94 303.25 779.01 300.67 778.85 298.09 778.73 295.52 779.13 292.94 779.34 290.37 779.15 287.79 778.44 285.22 779.06 282.64 779.1 280.06 778.55 277.49 778.89 274.91 778.99 272.33 779.13 269.76 778.87 267.18 779.24 264.61 778.84 262.03 778.56 259.45 778.94 256.88 779.26 254.3 778.7 251.72 778.72 249.15 778.58 246.57 778.62 243.99 778.8 241.42 778.9 238.84 779.25 236.27 779.35 233.69 778.6 231.11 779.36 228.54 778.74 225.96 779.27 223.39 778.84 220.81 778.59 218.24 778.68 215.67 778.51 213.1 778.48 210.52 779.1 207.95 779.07 205.38 778.7 202.8 778.97 200.23 778.7 197.65 778.79 195.07 779.11 192.5 779 189.92 778.72 187.35 779.08 184.77 779.24 182.2 779.26 179.62 779.04 177.05 779.11 174.47 779.24 171.89 779.11 169.31 779.25 166.74 778.67 164.16 778.54 161.58 778.87 159.01 779.04 156.43 778.82 153.85 779.1 151.27 778.63 148.7 779.06 146.12 778.91 143.54 778.77 140.96 779.19 138.39 779.2 135.81 778.54 133.23 778.99 130.65 779.04 128.07 778.73 125.49 778.92 122.91 778.43 120.33 779.15 117.75 779.16 115.17 779.3 112.6 778.86 110.02 779.27 107.44 779.32 104.86 778.85 102.28 778.73 99.71 778.62 97.13 779.4 94.55 778.61 91.97 778.66 89.39 778.69 86.81 778.5 84.23 779.02 81.65 778.69 79.07 778.94 76.49 778.58 73.91 778.62 71.32 779.1 68.74 779.21 66.16 779.13 63.58 779.21 61 778.8 58.41 778.58 55.83 778.53 53.24 778.46 50.56 779.18 50.99 776.3 50.74 773.69 50.01 771.16 49.18 768.68 48.94 766.08 48.36 763.54 47.58 761.05 45.97 758.91 44.84 756.6 44.39 753.89 42.46 752.01 40.96 749.91 39.32 747.92 38.01 745.63 36.17 743.78 34.08 742.21 32.1 740.55 30.43 738.46 28.25 737.01 26.01 735.67 23.69 734.45 21.28 733.44 18.75 732.77 16.47 731.43 14.01 730.52 11.27 730.77 8.83 729.74 6.2 729.82 3.62 729.62 .79 729.39 .72 726.74 .63 724.17 1.33 721.61 .64 719.04 1.21 716.48 1.22 713.91 .67 711.35 1.21 708.78 .64 706.22 1.03 703.65 1.02 701.09 .78 698.52 .75 695.96 1.18 693.39 .82 690.83 .72 688.27 .96 685.7 1.52 683.14 .66 680.57 1.21 678.01 1.46 675.44 1.49 672.88 .82 670.31 1.22 667.75 1.36 665.18 .89 662.62 1.52 660.05 1.17 657.48 1.04 654.92 .59 652.35 1.36 649.78 1.34 647.22 1.51 644.65 1.25 642.08 .81 639.51 .8 636.94 .84 634.37 1.26 631.8 1.4 629.23 .79 626.66 .62 624.09 .86 621.52 1.36 618.95 1.2 616.38 1.37 613.81 .66 611.24 1.33 608.67 1.25 606.1 .91 603.53 1.48 600.97 1.12 598.4 .93 595.83 .67 593.26 .83 590.7 .85 588.13 1.42 585.56 .88 583 .91 580.43 .59 577.86 .84 575.3 .57 572.73 1.44 570.16 .88 567.6 .68 565.03 1.5 562.46 1.1 559.9 1.1 557.33 1.34 554.76 .76 552.19 1.08 549.63 1.23 547.06 .93 544.49 1.28 541.92 1.45 539.35 .92 536.78 .95 534.21 .87 531.64 .74 529.07 1.24 526.5 .9 523.92 1.21 521.35 .62 518.78 1.33 516.21 1.36 513.64 1.27 511.07 .85 508.5 1.17 505.93 .83 503.36 .56 500.8 .66 498.23 1.53 495.66 .69 493.09 .84 490.52 .54 487.96 .62 485.39 1.51 482.82 .54 480.25 1.53 477.68 1.35 475.11 1.3 472.55 .59 469.98 1.34 467.41 .68 464.84 .7 462.27 .89 459.7 .95 457.12 .99 454.55 .86 451.98 1.16 449.41 1.31 446.84 1.06 444.26 .91 441.69 1.32 439.12 .71 436.55 1.48 433.98 .82 431.41 1.21 428.84 1.42 426.27 1.04 423.71 .58 421.14 .79 418.57 1.25 416 1.11 413.43 1.31 410.86 .61 408.29 1.43 405.72 1.32 403.15 .6 400.58 .7 398 .74 395.43 .72 392.86 1.32 390.29 .63 387.71 1.07 385.14 .72 382.57 1.29 380 .97 377.43 1.41 374.86 .83 372.29 1.32 369.72 .87 367.15 .57 364.58 .76 362.01 .62 359.44 .93 356.87 1.35 354.29 .67 351.72 1.27 349.15 1.18 346.58 .71 344 1.18 341.43 .89 338.86 1.2 336.29 .61 333.72 1.08 331.15 .93 328.57 1.39 326 1.03 323.43 1.2 320.86 .84 318.29 1.29 315.72 .75 313.15 1.32 310.57 .64 308 .93 305.43 .61 302.85 .8 300.28 .98 297.71 1.22 295.14 .69 292.57 .67 290 1.36 287.42 1.32 284.85 1.11 282.28 .79 279.71 1.44 277.13 .94 274.56 1.01 271.99 1 269.41 1.22 266.84 .56 264.27 1.24 261.7 .76 259.12 1.11 256.55 .61 253.98 .55 251.4 1.16 248.83 1.35 246.26 1.35 243.69 .55 241.11 .92 238.54 1.19 235.97 .81 233.4 1.44 230.82 1.23 228.25 1.07 225.68 1.24 223.11 .66 220.54 .86 217.97 1.13 215.4 .61 212.83 1.5 210.27 .71 207.7 .57 205.13 .59 202.55 .83 199.98 1.06 197.41 .9 194.83 1.47 192.26 .97 189.69 .55 187.12 .81 184.55 1.48 181.98 .89 179.41 1.44 176.83 .63 174.26 1.07 171.69 .68 169.11 1.01 166.54 .96 163.97 1.44 161.39 .59 158.82 .64 156.25 .72 153.67 .99 151.1 1.53 148.52 1.48 145.95 1.05 143.38 1.05 140.8 1.28 138.23 1.26 135.65 1.22 133.08 1.27 130.5 1.4 127.93 1.11 125.35 1.14 122.78 1.46 120.2 .99 117.63 .95 115.05 .6 112.48 .85 109.9 1.39 107.32 1.34 104.75 .75 102.18 .78 99.6 .89 97.03 1.35 94.45 .97 91.88 .85 89.31 1.5 86.73 1.3 84.15 .75 81.57 1.28 79 1.08 76.42 .97 73.84 .59 71.26 .78 68.68 .58 66.11 1.12 63.53 .59 60.95 .54 58.37 .85 55.79 .88 53.2 .8 50.54 3.61 50.12 6.2 50.09 8.8 49.99 11.32 49.37 13.98 49.32 16.42 48.34 18.92 47.58 21.31 46.54 23.39 44.88 25.95 44.15 28.25 42.9 30.38 41.39 32.24 39.54 34.06 37.67 36.15 36.11 37.69 34 39.91 32.48 41.4 30.33 42.33 27.81 44.25 25.95 45.43 23.62 46.59 21.29 47.33 18.77 48.25 16.34 49.28 13.93 49.54 11.32 50.11 8.78 50.63 6.22 50.17 3.58 50.67 1.06 53.22 1.01 55.79 1.46 58.37 1.17 60.94 .85 63.51 1.47 66.08 1.09 68.66 .68 71.23 1.32 73.8 1.41 76.37 .64 78.94 .62 81.52 1.33 84.09 .59 86.66 1.48 89.24 1.4 91.81 1.42 94.38 .64 96.95 .6 99.53 .52 102.1 1.26 104.68 .6 107.25 .79 109.82 1.36 112.4 .77 114.97 1.23 117.54 1.41 120.12 1.05 122.69 1.01 125.26 1.38 127.83 1.32 130.4 .92 132.97 1.06 135.54 1.5 138.11 1.05 140.68 .83 143.25 .77 145.82 .64 148.39 .86 150.96 1.22 153.53 .76 156.1 1.13 158.67 .69 161.24 .81 163.8 1.38 166.37 .99 168.94 .71 171.51 1.02 174.08 1.15 176.64 .65 179.21 1.41 181.78 1.07 184.35 1.42 186.92 .78 189.48 1.02 192.05 .51 194.62 .59 197.19 .77 199.76 1.19 202.33 .56 204.9 .77 207.47 .92 210.04 .55 212.61 .83 215.18 1.23 217.75 .59 220.32 1.36 222.89 .62 225.46 1.44 228.04 .53 230.61 .7 233.18 .66 235.76 1.09 238.33 .67 240.9 1.38 243.48 1.4 246.05 .88 248.63 1.45 251.2 1.09 253.78 .55 256.35 .51 258.92 1.06 261.49 1.02 264.06 1.21 266.64 .6 269.21 .68 271.78 1.34 274.35 1.16 276.92 .99 279.49 1.07 282.06 .87 284.63 .66 287.2 1.17 289.77 .59 292.34 1.33 294.91 1.39 297.48 1.33 300.05 1 302.62 1.32 305.19 .76 307.76 .62 310.33 1.13 312.91 .79 315.48 1.39 318.05 1.28 320.62 .77 323.19 .78 325.77 .83 328.34 1.2 330.91 .86 333.49 1.32 336.06 1.41 338.64 1.45 341.21 1.34 343.79 1.41 346.36 1.29 348.94 .51 351.51 .79 354.09 .7 356.66 .55 359.23 .62 361.8 1.08 364.38 1.1 366.95 1.4 369.52 1.02 372.09 1.24 374.66 .64 377.24 1.39 379.81 1.48 382.38 .94 384.95 .97 387.52 .75 390.09 .95 392.67 1.44 395.24 .88 397.81 1.5 400.39 .66 402.96 .62 405.53 1.07 408.11 .75 410.68 .54 413.26 1.04 415.83 .68 418.41 .75 420.99 1.23 423.56 1.43 426.14 .65 428.71 .91 431.28 .68 433.86 .59 436.43 .66 439 .63 441.58 1.47 444.15 1.23 446.72 .59 449.29 1.03 451.87 .92 454.44 .72 457.01 1.06 459.59 1.35 462.16 1.11 464.74 1.09 467.31 1.41 469.89 1.26 472.46 .87 475.04 1.39 477.62 1.31 480.19 .79 482.77 .89 485.34 .87 487.92 .52 490.49 1.03 493.06 .94 495.64 .83 498.21 1.03 500.79 1.44 503.36 1.48 505.93 .73 508.51 .91 511.08 .86 513.66 1.49 516.23 1.49 518.81 1.37 521.39 1.09 523.96 .88 526.54 1.43 529.12 1.15 531.69 1.05 534.27 1.35 536.84 .82 539.42 .77 541.99 1.48 544.56 1.03 547.14 .57 549.71 .87 552.29 1.22 554.87 .7 557.44 .91 560.02 1.04 562.6 .81 565.17 .96 567.75 .66 570.32 1.49 572.9 .77 575.47 1.3 578.05 .99 580.63 .85 583.2 1.06 585.78 1.17 588.35 1.11 590.93 1.45 593.51 1.16 596.08 1.18 598.66 .9 601.24 .57 603.81 1.29 606.39 .52 608.96 1.03 611.54 .7 614.12 1.14 616.7 .63 619.27 1.31 621.85 .53 624.42 .74 627 1.38 629.58 .99 632.15 .64 634.73 .74 637.3 .57 639.88 .87 642.46 .6 645.03 .8 647.6 1.23 650.18 .59 652.75 1.43 655.32 1.26 657.89 1.34 660.47 1.29 663.04 1.19 665.61 .92 668.19 .6 670.77 .91 673.35 .62 675.92 1.05 678.5 .81 681.07 1.19 683.65 .58 686.22 1.37 688.8 1.41 691.37 .87 693.95 1.23 696.53 1.23 699.11 .91 701.68 .91 704.26 .68 706.83 .78 709.41 .62 711.99 1.44 714.57 1.14 717.14 1.17 719.72 1.5 722.3 1.13 724.88 1.12 727.45 .72 730.03 1.39 732.61 .73 735.19 .9 737.77 1.04 740.35 .66 742.93 1.44 745.51 .71 748.08 1.05 750.66 1.43 753.24 .95 755.82 .88 758.4 .99 760.98 1.3 763.56 .7 766.14 1.35 768.71 1.13 771.29 .91 773.87 1.25 776.45 .85 779.03 1.45 781.61 1.18 784.19 1.34 786.77 1.2 789.35 .98 791.93 .6 794.51 1.45 797.09 .85 799.68 1.09 802.25 1.31 804.84 .52 807.42 1.33 810.01 1.27 812.59 1.48 815.18 .61 817.92 .55 817.99 3.59 818.37 6.16 818.24 8.79 819.17 11.25 819.28 13.89 820.51 16.23 820.59 18.97 822.27 21.09 823.48 23.37 824.06 26.02 826 27.88 826.93 30.4 828.72 32.31 830.71 34.02 832.35 36.04 834.36 37.68 836.07 39.68 838.04 41.39 840.21 42.85 842.77 43.64 844.65 45.63 847.01 46.77 849.59 47.37 851.93 48.55 854.47 49.2 857.13 49.23 859.65 49.84 862.24 49.89 864.79 50.4 867.51 50.57 867.15 53.18 867.32 55.75 867.73 58.31 867.74 60.88 867.35 63.44 867.49 66.01 867.61 68.57 867.77 71.14 867.08 73.7 867.48 76.27 867.46 78.83 867.65 81.4 867.83 83.96 867.57 86.53 867.74 89.09 867.45 91.66 867.2 94.22 867.19 96.78 867.47 99.35 867.42 101.91 867.03 104.48 867.31 107.04 867.36 109.61 867.63 112.17 867.7 114.74 867 117.3 867.65 119.87 867.25 122.44 867.58 125 867.71 127.57 867.79 130.14 867.1 132.7 867.3 135.27 867.05 137.84 867.74 140.41 867.71 142.98 867.63 145.55 867.55 148.12 867.38 150.69 867.39 153.26 867.79 155.83 867.35 158.4 867.46 160.97 867.65 163.54 866.96 166.11 867.04 168.68 867.75 171.25 867.48 173.82 867.69 176.39 867.8 178.96 867.85 181.52 867.7 184.09 867.2 186.66 867.08 189.22 867.16 191.79 867.09 194.36 867.04 196.92 867.73 199.49 867.71 202.06 867.33 204.62 867.21 207.19 867.15 209.76 867.04 212.32 867.58 214.89 867.28 217.46 867.11 220.02 867.17 222.59 867.64 225.16 867.49 227.73 867.88 230.29 867.6 232.86 867.56 235.43 867.34 238 867.41 240.57 867.4 243.14 867.7 245.71 867.84 248.28 867.11 250.85 867.56 253.43 867 256 867.75 258.57 867.01 261.14 867.36 263.71 867.54 266.28 867.04 268.85 867.74 271.42 867.08 273.99 867.07 276.56 866.94 279.12 867.33 281.69 867.83 284.26 867.75 286.83 867.73 289.4 867.07 291.97 867.74 294.53 867.56 297.1 867.68 299.67 867.5 302.24 867.4 304.81 867.76 307.38 867.35 309.94 867.84 312.51 867.66 315.08 866.92 317.65 867.57 320.23 867.74 322.8 867.72 325.37 867.66 327.94 867.28 330.51 866.88 333.09 867.75 335.66 866.93 338.23 867.72 340.8 867.24 343.37 867.78 345.94 867.71 348.51 866.99 351.08 867.38 353.65 867.14 356.22 867.05 358.79 867.53 361.35 867.83 363.92 867.35 366.49 867.45 369.06 867.49 371.63 867.76 374.2 867.59 376.77 867.28 379.35 867.63 381.92 867.1 384.49 867.58 387.06 867.42 389.64 867.7 392.21 867.22 394.78 867.22 397.35 867.73 399.92 867.86 402.49 867.33 405.06 867.66 407.63 867.56 410.2 867.13 412.77 867.87 415.34 867.2 417.91 867.85 420.48 867.49 423.05 867.84 425.63 867.65 428.2 867.16 430.77 867.55 433.34 867.49 435.92 867.64 438.49 867.13 441.06 867.44 443.63 867.17 446.2 867.41 448.78 867.52 451.35 867.85 453.92 866.95 456.49 867.6 459.06 867.63 461.63 867.77 464.2 867.71 466.78 867.67 469.35 867.13 471.92 867.03 474.5 867.21 477.07 867.24 479.64 866.96 482.21 867.12 484.78 867.08 487.35 867.24 489.93 867.56 492.5 867.28 495.07 866.97 497.64 867.03 500.22 866.97 502.79 867.47 505.36 867.06 507.94 867.31 510.51 866.99 513.08 867.22 515.65 866.95 518.22 867.16 520.8 867.09 523.37 867.85 525.94 867.21 528.52 866.89 531.09 867.23 533.66 867.21 536.24 867.75 538.81 867.05 541.38 867.19 543.95 867.28 546.52 867.01 549.1 867.37 551.67 867.56 554.24 867.86 556.81 867.4 559.38 866.93 561.95 867.18 564.52 867.79 567.09 867.78 569.66 867.24 572.23 867.02 574.8 867.64 577.37 867.53 579.94 867.67 582.51 867.2 585.09 867.62 587.66 867.05 590.23 867.87 592.8 867.42 595.37 867.55 597.94 867.06 600.51 867.59 603.09 867.34 605.66 867.46 608.24 867.69 610.81 867.49 613.38 866.99 615.95 866.99 618.53 867.68 621.1 867.49 623.67 867.15 626.25 867.87 628.82 867.63 631.4 867.2 633.97 867.54 636.54 867.77 639.12 867.8 641.69 867.81 644.27 867.67 646.84 867.84 649.42 867.15 651.99 867.24 654.57 867.41 657.14 867.15 659.72 867.26 662.29 867.82 664.87 867.06 667.45 867.42 670.02 867.86 672.6 867.23 675.17 866.89 677.74 867.11 680.32 867.53 682.89 867.06 685.47 866.97 688.04 867.51 690.62 867.29 693.19 867.67 695.77 867.37 698.35 867.66 700.92 867.68 703.5 867.79 706.08 867.4 708.66 867.8 711.24 867.08 713.81 867.45 716.39 867.06 718.97 867.33 721.55 867.81 724.13 867.66 726.72 867.32 729.28 864.81 729.76 862.24 729.99 859.65 730.12 857.07 730.39 854.64 731.38 852.02 731.64 849.63 732.67 847.35 733.93 845.07 735.13 842.62 736.03 840.18 737.04 837.95 738.42 836.24 740.47 834.24 742.12 832.03 743.57 830.75 745.94 829.12 747.94 827.39 749.87 826.01 752.05 824.15 753.96 823.45 756.54 821.77 758.61 820.74 761.01 820.26 763.61 819.89 766.19 819.22 768.68 818.16 771.12 817.91 773.72 817.63 776.31 817.87 779.21"/>
  </g>
</svg>